<?xml version="1.0" encoding="UTF-8"?>
<svg id="Layer_2" data-name="Layer 2" xmlns="http://www.w3.org/2000/svg" viewBox="0 0 283.41 213.77">
  <defs>
    <style>
      .cls-1 {
        fill: #342a1f;
      }
    </style>
  </defs>
  <g id="OBJECTS">
    <g>
      <path class="cls-1" d="m18.87,91.32c-.32-.6-.57-1.07-.82-1.53-2.08-3.85-3.5-7.94-4.15-12.26-1.97-13.06,3.31-25.09,13.84-32.37,4.3-2.97,9.04-4.88,14.15-5.95,3.76-.78,7.55-1.02,11.36-.79,3.37.2,6.69.79,9.92,1.81.22.07.45.1.76.17.03-.3.08-.53.08-.75-.04-4.42,1.25-8.45,3.59-12.17,1.94-3.09,4.39-5.74,7.16-8.09,4.1-3.49,8.69-6.21,13.56-8.5,6.34-2.98,12.97-5.12,19.8-6.63,1.26-.28,2.49-.71,3.74-1,3.1-.71,6.22-1.28,9.38-1.67,2.96-.37,5.92-.76,8.89-1.05,1.96-.2,3.94-.27,5.92-.36,1.49-.07,2.99-.13,4.48-.15,2.07-.03,4.15-.03,6.22,0,1.69.02,3.38.07,5.06.16,2.12.12,4.23.28,6.34.48,1.92.18,3.83.42,5.75.63,3.02.33,6,.86,8.98,1.42,5.11.96,10.15,2.23,15.1,3.83,6.39,2.06,12.54,4.66,18.31,8.13,3.27,1.97,6.35,4.2,9.14,6.83,2.36,2.23,4.45,4.69,6.08,7.51,2.1,3.62,3.26,7.5,3.11,11.72-.01.34,0,.68.05,1.01.91,7.24,1.41,14.49,1.16,21.79,0,.14.04.28.06.46,4.15,1.67,8.19,3.58,12.15,5.66,7.53,3.97,14.63,8.58,21.12,14.1,6.13,5.22,11.52,11.1,15.81,17.95,3.37,5.4,5.88,11.16,7.27,17.39.9,4.02,1.29,8.09,1.15,12.2-.32,9.43-3.26,18.05-8.09,26.08-3.43,5.7-7.65,10.75-12.42,15.38-6.9,6.69-14.65,12.22-22.98,16.97-9.41,5.36-19.31,9.6-29.58,13-8.51,2.82-17.16,5.09-25.97,6.72-3.74.69-7.49,1.35-11.24,1.92-2.71.41-5.45.64-8.18.98-4.07.52-8.16.81-12.24,1.03-7.8.41-15.61.6-23.43.16-2.5-.14-5.01-.23-7.51-.38-1.73-.11-3.46-.3-5.18-.46-1.2-.11-2.4-.22-3.59-.37-2.82-.35-5.64-.67-8.45-1.1-3.57-.55-7.13-1.12-10.67-1.82-17.23-3.43-33.81-8.77-49.34-17.1-7.59-4.07-14.72-8.81-21.21-14.49-6.28-5.5-11.75-11.7-15.95-18.95-3.04-5.25-5.27-10.83-6.43-16.8-.76-3.94-1.08-7.92-.85-11.94.58-9.83,3.93-18.7,9.24-26.9,2.5-3.86,5.38-7.41,8.52-10.76.33-.35.64-.7,1.03-1.13Zm210.37-15.12c-1.22-.74-2.55-1.25-3.91-1.67-.04-.01-.09.01-.22.03-.03.34-.06.71-.09,1.12.51.27.97.52,1.44.75.55.28,1.11.56,1.66.85.22.12.39.29.27.57h0c-.19-.13-.37-.3-.58-.39-.88-.39-1.77-.75-2.66-1.11-.06-.03-.16.05-.31.09v1.16c.85.45,1.71.89,2.54,1.35.22.12.59.13.57.53l.02-.03c-.94-.07-1.72-.57-2.55-.92-.24-.1-.51-.16-.8-.25-.29,1.76-.54,3.42-.83,5.08-.71,4.04-1.58,8.03-2.67,11.98-.07.26-.2.56.12.79.79-.23,1.6-.28,2.42-.16.2.03.35.12.28.34-1.05.18-2.08.36-3.14.54-.16.5-.55.86-.18,1.43,1.17-.37,2.36-.38,3.56-.25.21.02.41.22.84.47-1.82,0-3.36,0-4.91.5-.71,2.13-1.43,4.31-2.22,6.68.44-.21.68-.34.93-.45,1.04-.49,2.06-1.05,3.14-1.46,3.29-1.25,6.71-1.68,10.21-1.54.91.04,1.83.1,2.74.23,1.33.19,2.64.49,3.93.92,1.27.42,2.41,1.18,3.76,1.4,1.95,1.02,3.67,2.32,4.84,4.23,1.58,2.58,1.58,5.19.08,7.81-.58,1.01-1.35,1.88-2.23,2.64-1.03.89-2.16,1.62-3.37,2.22-2.58,1.28-5.32,2-8.16,2.27-2.64.26-5.3.24-7.93-.25-2.19-.41-4.31-1.02-6.3-2.04-2.41-1.24-4.44-2.88-5.67-5.38-.04-.08-.12-.15-.18-.22-.67.94-1.8,3.25-2.07,4.26.7.29,1.42.55,2.1.88.68.34,1.42.59,2.07,1.32-1.73-.25-3.05-1.27-4.7-1.5-.16.33-.31.65-.51,1.05.34.09.57.13.78.21.67.25,1.35.5,2.01.77.15.06.35.19.14.45-1.13-.08-2.17-.7-3.44-.67-.3.52-.6,1.04-.95,1.65.48.15.84.27,1.21.36.56.14,1.14.22,1.68.39,2.36.73,4.77,1.17,7.25,1.1,2.19-.06,4.01.9,5.74,2.07.75.51,1.41,1.16,2.13,1.73.73.58,1.31,1.28,1.75,2.09.2.36.44.7.67,1.06.15-.14.24-.19.29-.27,1.79-2.67,4.05-4.9,6.41-7.04,1.71-1.54,3.67-2.64,5.87-3.29,1.75-.52,3.52-.66,5.26-.07,1.57.53,2.98,1.38,4.15,2.56,1.01,1.01,1.71,2.2,2,3.62.5,2.51.13,4.89-1.03,7.15-.44.86-.96,1.67-1.47,2.49-1.99,3.19-4.07,6.32-5.9,9.61-.47.84-1.04,1.62-1.59,2.41-.88,1.25-2.03,2.19-3.45,2.78-.75.31-1.53.57-2.29.86-.26.1-.51.21-.76.32,0,.22-.03.37,0,.5.56,2.28.04,4.38-1.04,6.4-1.02,1.9-2.45,3.46-3.99,4.93-4.04,3.86-8.62,6.56-14.35,7.08-4.53.41-8.59-2.34-9.63-6.74-.29-1.23-.35-2.48-.31-3.73,0-.26.15-.57-.15-.77-.05.01-.11.01-.13.04-.29.38-.57.77-.87,1.15-2.08,2.65-4.49,4.91-7.6,6.32-2.5,1.14-5.12,1.68-7.87,1.3-1.66-.23-3.16-.81-4.39-2-.12-.12-.28-.2-.52-.38-.05.51-.08.88-.13,1.25-.22,1.5-.62,2.95-1.7,4.07-1.68,1.74-3.55,3.27-5.77,4.28-3.22,1.48-6.57,1.74-10.02,1.02-2.51-.52-4.89-1.44-7.29-2.28-1.2-.42-2.23-1.15-3.04-2.14-.76-.93-1.52-1.87-2.23-2.84-.93-1.26-1.25-2.69-1.02-4.24.07-.46.09-.94.14-1.48-.28.02-.46.02-.64.04-2.15.25-4.3.54-6.46.75-2.89.28-5.78.26-8.67.03-2.01-.16-4.02-.48-6.03-.7-.36-.04-.75-.2-1.17.1,0,.27,0,.55,0,.83-.02,2.37-.96,4.29-2.8,5.77-1.26,1.01-2.65,1.77-4.2,2.21-3.52,1-7.09,1.3-10.72.67-5.28-.92-9.56-3.43-12.69-7.82-.22-.3-.45-.6-.73-.97-.21.24-.39.39-.52.58-.62.95-1.53,1.49-2.61,1.64-1,.13-2.02.18-3.02.15-3.14-.1-5.93-1.16-8.36-3.14-.84-.68-1.48-1.51-1.96-2.47-.65-1.29-.81-2.69-.82-4.08,0-1.93.48-3.76,1.98-5.11,2.73-2.46,5.89-3.59,9.58-2.81,2.86.61,5.34,1.9,7.18,4.25.11.14.27.23.41.35.45-.32.84-.61,1.23-.88.38-.26.77-.5,1.24-.81-.47-.37-.84-.66-1.23-.94-2.65-1.93-5.19-4.01-7.59-6.25-3.36-3.13-6.47-6.49-9.32-10.09-.12-.15-.23-.31-.36-.45-.15-.16-.24-.44-.63-.3-.03.3-.08.62-.1.95-.03.34-.04.67-.05,1.01,0,.34-.01.68,0,1.01,0,.34.03.67.06,1.01.02.34.04.68.08,1.01.04.33.12.66.18.99.06.33.11.67.2.99.09.37.21.74.33,1.11.11.32.23.63.35.95.12.31.25.63.39.93.14.31.3.6.46.9.16.3.33.59.51.87.18.28.38.56.58.83.2.27.43.52.64.79.18.24.46.41.57.82-1.85-.97-3.57-3.12-4.46-5.74-1.07-3.15-1.52-6.34-.22-9.59-2.68-3.58-5.12-7.33-7.34-11.23-2.24-3.94-4.18-8.02-6-12.21-.37.09-.65.13-.91.21-4,1.19-8.09,1.8-12.25,1.79-4.56-.01-9.03-.68-13.38-2.04-10.61-3.32-19.23-9.4-25.57-18.61-.16-.23-.34-.46-.55-.75-.25.21-.5.36-.68.57-1.22,1.37-2.47,2.71-3.63,4.13-4.21,5.08-7.68,10.62-10.14,16.76-3.13,7.8-4.32,15.88-3.27,24.24.6,4.81,1.94,9.43,3.9,13.87,3.03,6.87,7.3,12.9,12.42,18.36,4.78,5.09,10.13,9.49,15.89,13.41,8.88,6.05,18.45,10.78,28.47,14.63,8.19,3.15,16.57,5.66,25.12,7.6,4.36.99,8.74,1.9,13.17,2.59,2.05.32,4.09.64,6.14.93,1.91.27,3.82.54,5.73.74,2.49.26,4.99.48,7.49.66,2.88.21,5.77.37,8.66.54.67.04,1.35.05,2.02.09,5.4.28,10.8.24,16.2.05,2.65-.1,5.3-.25,7.94-.42,2.84-.19,5.67-.38,8.5-.67,2.78-.28,5.55-.65,8.31-1.06,3.81-.57,7.62-1.12,11.4-1.84,7.42-1.41,14.76-3.2,21.99-5.42,10.1-3.1,19.89-6.95,29.26-11.86,9-4.72,17.44-10.27,24.98-17.13,5.27-4.8,9.92-10.12,13.7-16.18,4.29-6.88,7.19-14.27,8.07-22.38.57-5.22.31-10.39-.84-15.52-1.46-6.47-4.14-12.41-7.76-17.95-4.24-6.47-9.49-12.03-15.4-16.98-9.28-7.77-19.7-13.65-30.74-18.5-.25-.11-.53-.13-.86-.2-.07,1.13-.21,2.17-.07,3.19.18.1.3.2.43.24,3.52,1.1,6.79,2.73,9.9,4.67,1.3.81,2.51,1.79,3.74,2.71.17.13.25.37.37.56l.03-.03c-.45.1-.71-.25-1.02-.45-3.96-2.51-8.21-4.43-12.58-6.1-.33-.13-.68-.32-1.12-.16v1.42c1.07.46,2.09.88,3.1,1.35,1.41.65,2.16,1.18,2.84,2-.54-.21-.93-.36-1.32-.52-1.47-.6-2.93-1.21-4.4-1.81-.08-.03-.18.02-.36.04-.03.29-.07.59-.1.87,1.43.67,2.78,1.31,4.11,1.94-.02.21-.04.35-.05.49h0Zm-164.43-31.16c-.15.47-.28.73-.3.99-.21,3.03-.49,6.06-.58,9.09-.14,4.63-.13,9.25.17,13.88.29,4.48.76,8.93,1.45,13.36,1.28,8.16,3.31,16.13,6.13,23.89,4.29,11.79,10.23,22.64,18.29,32.29,4.6,5.5,9.76,10.4,15.62,14.56.51.36,1.03.7,1.54,1.05,2.38-.74,4.76-1.01,7.18-.88.86.05,1.72.18,2.59.27,3.21.33,6.2,1.32,8.99,2.92.29.17.62.33.81.59.42.57,1.03.85,1.57,1.25,1.7,1.29,2.95,2.89,3.35,5.06.07.37.2.73.31,1.13.35.1.67.22.99.27,3.19.5,6.4.86,9.63.92,1.93.03,3.85-.07,5.78-.22,2.36-.18,4.68-.56,7.01-.94.46-.08.8-.29,1.06-.67.13-.2.27-.4.43-.58,3.58-4.07,8-5.89,13.42-5,2.08.34,2.08.37,3.94-.64.04-.02.09-.04.13-.06,8.77-4.81,16.26-11.17,22.75-18.75.09-.1.13-.25.21-.39-.27-.56-.54-1.12-.8-1.69-1.12-2.44-1.05-6.07,1.55-8.37.11-.1.2-.21.31-.31,2.19-2.02,4.69-3.35,7.72-3.52.42-.02.85-.1,1.18-.14.15-.16.22-.23.27-.31,2.04-3.39,3.82-6.91,5.44-10.52.15-.34.24-.73.29-1.11.18-1.32.66-2.52,1.45-3.58.43-.59.77-1.22,1.02-1.9,1.9-5,3.49-10.11,4.75-15.31,1.36-5.63,2.37-11.31,2.99-17.07.36-3.31.66-6.62.74-9.95.09-3.71.06-7.43,0-11.14-.03-1.97-.2-3.95-.32-5.92-.02-.24.1-.61-.4-.69-.11.24-.24.49-.34.76-.93,2.35-2.23,4.48-3.77,6.47-2.48,3.19-5.45,5.85-8.73,8.18-4.54,3.23-9.47,5.74-14.61,7.84-5.81,2.37-11.8,4.12-17.92,5.5-4.28.96-8.59,1.69-12.94,2.25-2.43.31-4.89.52-7.34.7-2.84.21-5.67.43-8.51.5-5.74.13-11.47.07-17.19-.5-2.35-.23-4.71-.36-7.04-.69-3.33-.47-6.66-1.04-9.97-1.64-5.93-1.08-11.72-2.67-17.4-4.68-6.05-2.15-11.87-4.81-17.27-8.32-3.33-2.16-6.42-4.62-9.11-7.54-2.68-2.9-4.83-6.12-6.16-9.87-.08-.21-.18-.42-.36-.83Zm80.53,32.85c4.68-.1,9.35-.24,14.02-.68,3.21-.31,6.41-.68,9.61-1.16,4.81-.72,9.57-1.7,14.26-2.97,6.14-1.67,12.12-3.78,17.83-6.63,4.72-2.36,9.16-5.15,13.07-8.71,3.06-2.79,5.63-5.95,7.33-9.76,1.7-3.82,2.17-7.78,1.31-11.87-.62-2.97-1.92-5.65-3.63-8.13-1.9-2.76-4.22-5.14-6.79-7.28-3.46-2.88-7.26-5.25-11.27-7.28-9.8-4.95-20.23-7.9-30.99-9.8-2.32-.41-4.66-.76-6.99-1.07-2.05-.27-4.12-.49-6.18-.65-2.31-.18-4.62-.27-6.93-.42-5.88-.39-11.76-.18-17.64.19-3.36.21-6.72.55-10.06,1.03-2.86.41-5.71.83-8.54,1.41-1.27.26-2.55.5-3.83.74-.61.11-1.25.12-1.84.29-2.17.62-4.34,1.27-6.49,1.95-5.51,1.76-10.88,3.87-15.98,6.62-4.17,2.25-8.1,4.86-11.57,8.12-2.8,2.63-5.17,5.59-6.77,9.12-1.79,3.95-2.3,8.03-1.35,12.28.61,2.71,1.76,5.19,3.29,7.51,1.71,2.59,3.8,4.86,6.13,6.9,3.47,3.03,7.3,5.53,11.37,7.65,9.78,5.1,20.23,8.15,31.04,10.11,2.79.51,5.61.88,8.43,1.24,2.39.31,4.78.61,7.18.75,3.99.24,7.99.34,11.99.5Zm-78.87,16.57c-.55.22-.9.38-1.26.51-1.89.73-3.85,1.25-5.86,1.51-2.89.39-5.76.27-8.64-.22-5.34-.91-10.13-3.03-14.37-6.38-2.21-1.75-4.14-3.76-5.5-6.27-.32-.59-.69-1.16-1.06-1.73-.78-1.18-1.3-2.47-1.67-3.83-1.57-5.77-.53-10.98,3.42-15.53,1.7-1.96,3.8-3.41,6.15-4.48,4.93-2.24,10.09-2.74,15.4-1.9,3.06.48,5.99,1.39,8.76,2.8.14.07.32.08.52.13v-1.52c-.56-.28-1.06-.57-1.59-.79-1.16-.48-2.33-.92-3.49-1.38-.23-.09-.58-.06-.54-.52,1.98-.04,3.76.67,5.54,1.41.17-.74.19-.78-.27-.95-.99-.38-1.98-.73-2.99-1.07-.39-.13-.8-.24-1.39-.52,1.81-.35,3.25.3,5.05.66-1.18-1.17-2.55-1.17-3.74-1.84,1.33-.29,2.46.11,3.7.44-.02-.38-.04-.64-.06-.92-1.04-.28-2.02-.53-2.99-.81-.18-.05-.33-.22-.57-.4,1.32-.27,2.42.16,3.64.37.18-.93.39-1.8.21-2.81-.8-.19-1.59-.38-2.38-.58-.26-.07-.58-.07-.65-.42,1.01-.35,2,.28,3.12.11-.57-.51-1.19-.43-1.72-.6-.19-.06-.49-.07-.4-.47h2.37c.03-.36.05-.68.07-.94-.43-.42-1.1-.2-1.38-.82.53-.02,1.04-.04,1.53-.06.21-1.04.4-1.98.6-2.96-.17-.06-.35-.13-.53-.18-2.66-.68-5.34-1.22-8.08-1.49-3.18-.31-6.34-.33-9.52,0-3.13.33-6.17,1.02-9.12,2.1-6.37,2.32-11.73,6.05-15.73,11.56-5.79,7.98-7.27,16.85-5.08,26.38.97,4.22,2.81,8.09,4.9,11.85.12.21.25.42.4.6,1,1.23,1.98,2.49,3.03,3.69,8.56,9.83,19.39,15.16,32.33,16.2,4.79.39,9.53-.15,14.17-1.44.3-.08.59-.24.9-.38-.09-.22-.12-.36-.2-.47-.05-.07-.15-.1-.23-.15-2.67.7-5.37,1.1-8.14,1.02-.74-.02-1.47-.08-2.19-.42,1.98-.24,3.9-.42,5.8-.72,1.37-.22,2.72-.59,4.08-.9.06-.01.09-.14.16-.25-.09-.19-.19-.4-.32-.66-.7.07-1.37.09-2.03.2-1.54.25-3.08.19-4.62.12-.17,0-.41,0-.43-.36,1.07-.14,2.14-.26,3.21-.44,1.14-.19,2.26-.44,3.43-.67-.11-.61-.21-1.16-.64-1.62-1.08.15-2.12.31-3.17.45-.29.04-.58.05-.87.06-.29.01-.58,0-.87,0-.05,0-.1-.02-.13-.05-.02-.02,0-.08,0-.18,1.48-.71,3.21-.71,4.78-1.34-.43-.43-.47-.47-.72-.39-.74.23-1.49.27-2.45.32.8-.82,1.9-.7,2.66-1.37-.77-.37-1.45.35-2.15-.04.47-.62,1.32-.37,1.89-.95-.22-.71-.46-1.47-.72-2.29-.6.15-1.1.29-1.61.41-.56.13-1.13.26-1.69.37-.52.1-1.04.19-1.57.25-.53.06-1.07.09-1.6-.09,1.2-.39,2.4-.68,3.6-.99.74-.19,1.48-.41,2.21-.65.34-.11.44-.36.15-.67-.88,0-1.68.58-2.71.51.74-.75,1.69-.89,2.46-1.43-.03-.16-.06-.34-.1-.55-.85,0-1.55.61-2.59.36.89-.45,1.6-.81,2.4-1.21-.11-.42-.22-.82-.36-1.33Zm-.46-1.51c-.87-4.74-1.72-9.37-2.58-14.05-1,.08-1.8.98-3.04.88.74-.74,1.54-1.07,2.3-1.45.76-.38.76-.38.44-1.37-1.48.54-2.96,1.07-4.44,1.61.53-.76,1.31-1.09,2.05-1.45.77-.38,1.57-.69,2.45-1.07-.07-.42-.14-.82-.22-1.29-1.24.29-2.26.82-3.32,1.24-1.06.42-2.03,1.03-3.15,1.32,1.81-1.77,4.11-2.68,6.37-3.56.05-1.09-.18-3.84-.4-4.72-.36.11-.72.21-1.07.34-4.32,1.66-8.53,3.55-12.64,5.68-1.2.62-2.34,1.33-3.51,2-.75.43-1.5.86-2.26,1.28-.2.11-.41.28-.71.03,1.54-1.18,3.12-2.28,4.78-3.24,1.54-.89,3.14-1.69,4.73-2.49,3.32-1.66,6.68-3.2,10.25-4.26.17-.05.31-.2.45-.3,0-.53.02-1.01,0-1.49-.03-.51.06-1.03-.13-1.56-.21.05-.36.06-.48.11-4.69,2.13-9.37,4.3-13.91,6.74-5.23,2.81-10.29,5.89-15.09,9.38-.41.3-.92.52-1.15,1.06.17.27.31.53.47.76.33.48.65.96,1.01,1.41,5.5,6.68,12.68,10,21.21,10.59,1.87.13,3.76.05,5.62-.28,2.04-.36,4.04-.87,5.98-1.85Zm151.9,40.91c-1.41-.1-2.8-.15-4.2-.01-1.49.14-2.97.29-4.45.49-2.04.28-3.93-.02-5.64-1.22-.43-.31-.88-.59-1.34-.86-1.36-.78-2.84-1.1-4.47-1.22-.69,1.57-.67,3.11-.1,4.66.48,1.29,1.28,2.37,2.16,3.4,1.65,1.92,3.62,3.43,5.76,4.78,2.77,1.76,5.81,2.52,9.02,2.71,2.96.17,5.71-.64,8.38-1.84,1.77-.79,3.17-2.02,4.29-3.56,1.09-1.5,1.59-3.18,1.05-5.05-.11-.37-.2-.75-.26-1.13-.26-1.49-1.03-2.67-2.1-3.7-.59-.57-1.09-1.21-1.65-1.81-.29-.31-.58-.68-.95-.86-1.31-.62-2.66-1.14-4.16-.97-2.05.22-4.03-.26-6.02-.6-1.56-.27-3.09-.71-4.62-1.15-.77-.22-1.53-.2-2.29-.12-.57.06-1.13.22-1.69.36-2.16.53-4.01,1.61-5.54,3.22-.14.15-.19.38-.32.67,2.17.03,3.98.77,5.62,1.94.16.11.32.21.49.31.85.49,1.75.81,2.75.75,1.11-.06,2.21-.14,3.32-.19,1.25-.05,2.51-.15,3.75-.1,1.15.04,2.24.38,3.2,1.11Zm28.52-23.03s.05-.09.04-.12c-.05-.18-.09-.37-.18-.54-.83-1.59-2.13-2.71-3.6-3.68-.4-.27-.89-.44-1.21-.78-.43-.45-.93-.64-1.49-.81-1.89-.58-3.81-.97-5.77-1.23-2.56-.34-5.1-.21-7.63.18-3.74.59-7.09,2.08-10,4.52-.75.63-1.32,1.39-1.66,2.32-.74,2.05-.4,3.98.71,5.8.56.91,1.31,1.66,2.15,2.32,1.3,1.02,2.74,1.78,4.3,2.33,5.25,1.85,10.55,1.93,15.88.37,2.15-.63,4.14-1.56,5.89-2.97,1.18-.95,2.17-2.06,2.7-3.5.3-.81.6-1.63.33-2.55-1.38-.8-2.82-1.19-4.41-.69-1.05.33-2.12.62-3.17.97-3.31,1.1-6.68,1.36-10.11.78-1.09-.19-2.16-.47-3.14-1.03-.17-.1-.48-.11-.37-.48.14.03.28.06.41.09,4.32,1.05,8.58.87,12.79-.56.91-.31,1.82-.61,2.74-.89,1.42-.43,2.84-.44,4.25.08.16.06.33.23.52.06Zm-16.67,40.34c.84.65,1.79.87,2.7,1.15,2.94.9,3.83.81,6.68-.46.04-.02.09-.03.14-.05,1.13-.5,2.09-1.21,2.78-2.23.7-1.04,1.39-2.09,2.05-3.15,1.25-2.01,2.46-4.03,3.71-6.04.94-1.51,1.9-3.02,2.87-4.52,1.02-1.59,1.46-3.35,1.49-5.21.02-1.33-.31-2.57-1.09-3.68-1.75-2.49-5.06-3.73-8.03-3.01-1.96.47-3.73,1.31-5.27,2.59-2.97,2.48-5.66,5.23-7.99,8.35.12.62.27,1.23.35,1.84.06.47.12.97.05,1.44-.25,1.59-.78,3.09-1.87,4.32-.67.76-1.42,1.44-2.13,2.16-.23.23-.48.45-.67.62-.04,1.35.19,2.5,1.1,3.43.65.66,1.04,1.63,2.13,1.87.04-.3.07-.54.1-.78.35-3.18,1.81-5.76,4.29-7.76.68-.55,1.35-1.09,2.03-1.63,1.15-.9,2.12-1.97,2.88-3.22.9-1.48,1.76-2.99,2.64-4.48.12-.21.27-.4.48-.69.02.26.06.36.03.44-1.31,3.74-3.04,7.18-6.36,9.6-.93.68-1.75,1.52-2.54,2.36-1.78,1.89-2.31,4.26-2.57,6.73ZM62.38,60.52c-3.68-1.66-7.37-2.78-11.3-3.18-3.76-.38-7.4.07-10.94,1.3-2.48.86-4.7,2.2-6.61,4.03-5.08,4.86-5.69,11.88-2.81,17.83.06.12.18.22.29.36.59-.42,1.14-.8,1.69-1.19,8.81-6.22,18.25-11.25,28.3-15.16.48-.19,1.02-.28,1.38-.72v-3.28Zm56.72,103.87c-.57.59-1.24.58-1.91.53-1.13-.09-2.14-.53-3.13-1.04-1.5-.78-2.85-1.8-4.1-2.93-.65-.59-1.36-1.06-2.2-1.34-1.45-.48-2.85-.31-4.23.26-.61.25-1.32.36-1.66,1.04-.44.88-.71,1.8-.5,2.78.12.56.32,1.11.55,1.64.19.44.46.84.74,1.24,3.78,5.48,9.15,7.91,15.65,8.04,2.02.04,4.03-.3,5.99-.84,1.6-.44,3.04-1.19,4.3-2.28,1.07-.92,1.72-2.11,1.83-3.49.1-1.23.22-2.51-.34-3.7-.1-.21-.14-.46-.18-.7-.14-.83-.52-1.54-.96-2.24-.65-1.04-1.52-1.86-2.48-2.6-.53-.41-1.18-.73-1.57-1.25-.35-.47-.76-.68-1.25-.88-2.19-.91-4.47-1.46-6.83-1.74-2.5-.3-5-.4-7.47.13-1.94.42-3.81,1.03-5.34,2.39-.49.44-.99.87-1.32,1.66.54-.18.94-.32,1.34-.44,2.28-.7,4.37-.35,6.25,1.14.38.3.73.62,1.11.92,2.28,1.8,4.67,3.35,7.71,3.7Zm104.81-18.22c-.29.1-.55.2-.81.29-.95.34-1.88.74-2.85,1-.95.26-1.8.68-2.51,1.35-.77.72-1.55,1.45-2.26,2.23-.84.93-1.62,1.91-2.41,2.89-1.69,2.09-2.85,4.45-3.49,7.06-.05.2-.04.41-.05.66.15-.05.2-.05.23-.08.1-.1.21-.2.3-.32,1.26-1.62,2.89-2.66,4.86-3.19,2.66-.71,5.17-1.82,7.56-3.17.2-.12.4-.29.7-.07-.1.15-.19.32-.31.46-.88.98-1.94,1.72-3.11,2.32-1.46.75-3.01,1.3-4.59,1.69-2.58.64-4.23,2.37-5.57,4.51-.21.34-.29.69-.25,1.1.45,4.6,3.76,6.98,7.81,6.82,3.22-.12,6.23-1.14,8.97-2.88,2.54-1.61,4.78-3.57,6.77-5.82.87-.98,1.55-2.09,2.1-3.27.8-1.71.99-3.48.34-5.31-.42-.06-.8-.14-1.18-.17-1.81-.14-3.45-.83-5.07-1.56-1.48-.67-2.7-1.63-3.67-2.94-.7-.95-1.34-1.88-1.34-3.12,0-.13-.09-.25-.17-.47Zm-39.9,24.8c-1.77-.27-3.2-1.03-4.5-2.06-.19-.15-.38-.29-.58-.43-1.62-1.18-3.42-1.92-5.41-2.26-2.26-.38-4.5-.38-6.74.13-.16.03-.37.21-.44-.17.68-.51,1.49-.82,2.32-1.02,2.68-.64,5.34-.56,7.94.42,1.41.53,2.68,1.3,3.84,2.25.9.74,1.87,1.35,2.95,1.8.59.24.97.02,1-.58.02-.63-.04-1.24-.38-1.81-.35-.57-.65-1.17-.98-1.76-1.63-.62-3.15-1.44-4.59-2.41-1.69-1.13-3.56-1.91-5.41-2.71-.4-.17-.81-.33-1.23-.4-1.91-.3-3.82-.5-5.75-.37-.66.04-1.34.18-1.97.41-2.63.95-4.92,2.41-6.64,4.67-.41.54-.79,1.1-.89,1.79-.09.67-.15,1.34-.17,2.01-.03.89.2,1.72.75,2.44.71.91,1.44,1.81,2.17,2.7.75.92,1.73,1.55,2.85,1.9,2.56.81,5.05,1.86,7.75,2.22,2.18.29,4.31.21,6.42-.45,2.61-.81,4.65-2.47,6.59-4.3.53-.5.9-1.12,1.11-2.01Zm7.63-13.29c0-.1-.02-.22.02-.27,1.25-1.35,2.73-2.3,4.61-2.41,1.16-.07,2.02-.58,2.59-1.57.36-.63.67-1.28.97-1.93.24-.53.42-1.08.63-1.61.38-.96.95-1.78,1.81-2.38.18-.13.43-.23.4-.58-.29,0-.58-.03-.86,0-1.68.2-3.33.53-4.9,1.14-1.4.55-2.7,1.29-3.74,2.4-1.38,1.48-2.77,2.96-4.09,4.49-1.24,1.44-2.1,3.11-2.59,4.95-.56,2.11-.5,4.19.35,6.23.57,1.37,1.52,2.32,2.93,2.79,1.15.38,2.34.65,3.55.5,1.82-.22,3.6-.59,5.26-1.44,2.98-1.54,5.35-3.74,7.26-6.47.87-1.23,1.44-2.6,1.91-4.03.53-1.62.51-3.21.07-4.83-.24-.89-.49-1.77-1.06-2.51-.79-1.04-1.73-1.92-2.84-2.69-1.05.52-1.81,1.28-2.25,2.34-.31.76-.58,1.53-.86,2.3-.33.91-.75,1.77-1.35,2.54-.72.93-1.63,1.5-2.84,1.46-1.45-.05-2.73.46-3.97,1.14-.32.17-.58.49-1,.44Zm-7.06,7.28c0-.54.02-.88,0-1.21-.26-3.28.73-6.21,2.66-8.8,1.61-2.17,3.54-4.07,5.5-5.94.21-.2.45-.37.69-.53,2.76-1.9,5.84-2.66,9.16-2.48,2.53.14,2.34.24,4.08,1.77,1.14,1,1.99,2.23,2.43,3.7.35,1.2.65,2.42.65,3.69,0,.2-.13.48.23.64.38-.55.74-1.11,1.13-1.64.37-.5.78-.99,1.18-1.47.43-.52.88-1.03,1.32-1.53.42-.47.86-.92,1.26-1.39.42-.49,1.02-.83,1.45-1.55-3.55-.06-6.89-.42-9.95-2.04-3.05-1.61-5.78-3.64-8.08-6.37-.48.53-.9.99-1.32,1.45-.45.5-.91,1-1.37,1.5-.43.46-.86.92-1.29,1.37-.44.45-.88.9-1.33,1.33-.48.47-.97.94-1.46,1.4-.46.43-.92.85-1.39,1.27-.47.42-.93.84-1.41,1.25-.47.41-.95.82-1.44,1.21-.52.43-1.05.85-1.58,1.27-.49.39-.99.77-1.49,1.14-.5.37-1.01.74-1.52,1.11-.55.39-1.11.77-1.66,1.15-.52.35-1.04.7-1.57,1.03-.53.34-1.06.67-1.6.99-.58.35-1.17.67-1.74,1.03-.51.32-1.11.5-1.51.94.08.14.09.2.12.22.16.1.33.19.5.27,1.79.85,3.5,1.82,5.11,2.98.89.65,1.89,1.16,2.86,1.69.37.2.78.32,1.36.55Zm-82.49-7.75c-1.89-2.07-4.05-3.4-6.68-4-3.29-.75-6.07.14-8.54,2.32-.55.49-.95,1.09-1.21,1.77-1.03,2.68-.07,6.21,2.21,7.94,2.79,2.11,5.98,2.78,9.4,2.46.5-.05,1.04-.27,1.46-.56.58-.4,1.06-.94,1.58-1.42-.09-.25-.15-.43-.21-.61-.44-1.27-.42-2.54-.05-3.83.41-1.45,1.03-2.79,2.04-4.07Z"/>
      <path class="cls-1" d="m18.02,99.97c-.08.21-.13.43-.24.62-.42.7-.86,1.4-1.28,2.1-2.99,4.93-5.42,10.1-6.87,15.7-1.22,4.7-1.8,9.47-1.52,14.32.36,6.33,1.97,12.35,4.7,18.07,2.63,5.53,6.12,10.48,10.22,15.01,5.51,6.08,11.88,11.14,18.8,15.51,8.05,5.09,16.62,9.13,25.55,12.42,8.05,2.96,16.29,5.28,24.68,7.05,4.01.84,8.03,1.57,12.07,2.2,2.57.4,5.16.68,7.74.97,2.49.28,4.98.57,7.48.77,2.45.19,4.91.24,7.36.41,5.25.37,10.51.28,15.77.2,3.28-.05,6.55-.29,9.82-.47,1.78-.1,3.56-.22,5.34-.37,1.44-.12,2.88-.28,4.31-.45,1.87-.21,3.73-.43,5.59-.68,2.24-.3,4.49-.58,6.72-.97,3.41-.6,6.82-1.22,10.21-1.95,17.17-3.7,33.65-9.33,49.05-17.9,7.36-4.09,14.24-8.86,20.51-14.49,5.52-4.95,10.41-10.45,14.32-16.78,3.21-5.21,5.62-10.75,6.95-16.74,1.1-4.94,1.35-9.92.81-14.95-.41-3.86-1.34-7.58-2.65-11.23-.11-.32-.24-.64-.29-.96-.04-.31.14-.57.44-.67.29-.1.6-.06.78.21.16.23.29.5.39.77,1.31,3.48,2.24,7.06,2.73,10.76.48,3.61.54,7.22.16,10.82-.6,5.8-2.23,11.33-4.72,16.61-2.93,6.2-6.83,11.74-11.42,16.8-5.87,6.47-12.62,11.9-19.93,16.65-9.54,6.2-19.73,11.08-30.39,14.99-8.64,3.17-17.48,5.67-26.48,7.6-4.47.96-8.97,1.78-13.49,2.48-2.52.39-5.06.67-7.59.97-2.39.28-4.79.53-7.19.77-1.39.14-2.79.24-4.18.32-5.68.32-11.37.49-17.06.44-2.17-.02-4.34-.02-6.51-.12-2.74-.12-5.49-.31-8.23-.48-1.63-.11-3.27-.22-4.9-.38-2.01-.19-4.03-.38-6.04-.64-2.39-.31-4.76-.7-7.15-1.04-4.1-.6-8.15-1.41-12.2-2.29-7.86-1.71-15.58-3.93-23.14-6.7-9.94-3.65-19.43-8.2-28.25-14.09-6.4-4.28-12.29-9.16-17.41-14.94-5.07-5.72-9.13-12.05-11.77-19.26-2.43-6.63-3.32-13.47-2.7-20.48.6-6.76,2.67-13.1,5.84-19.09,1.24-2.35,2.63-4.6,4.23-6.73.22-.29.48-.56.72-.84.09.06.19.11.28.17Z"/>
      <path class="cls-1" d="m70.86,169.18c.18,1.92-.32,3.74-.86,5.53-.43,1.43-1.37,2.52-2.61,3.36-2.33,1.58-4.89,2.2-7.67,1.89-.76-.08-1.52-.22-2.29-.31-2.28-.25-4.24-1.27-6.01-2.63-3.11-2.39-5.92-5.07-8.11-8.36-.98-1.48-1.66-3.01-1.84-4.79-.17-1.8-.06-3.56.4-5.3.47-1.81,1.53-3.18,3.09-4.2,1.95-1.27,4.12-1.87,6.41-1.95,3.35-.11,6.5.73,9.38,2.43,2.97,1.76,5.55,3.99,7.58,6.81,1.14,1.58,2.04,3.27,2.34,5.22.12.76.13,1.53.19,2.3Zm-19.37-9.13c.95-.67,1.96-.75,2.96-.79,2.13-.09,3.99.56,5.52,2.06.82.81,1.64,1.63,2.38,2.52.91,1.09,1.98,1.78,3.42,1.93,1.05.1,2.1.26,3.06.78.05.03.15-.06.28-.12-.04-.17-.07-.36-.14-.52-.53-1.19-1.16-2.32-1.94-3.37-1.57-2.11-3.51-3.84-5.62-5.38-2.56-1.86-5.42-2.91-8.56-3.16-2.35-.18-4.6.24-6.67,1.46-1.6.94-2.53,2.32-2.84,4.14-.26,1.49-.27,2.97-.05,4.46.15,1.02.47,1.96,1.01,2.83,2.25,3.62,5.23,6.54,8.61,9.07,1.12.84,2.37,1.53,3.75,1.81,1.36.28,2.76.44,4.15.5,2.03.09,3.89-.49,5.56-1.68,1.06-.76,1.8-1.75,2.12-3.01.27-1.07.44-2.17.67-3.25.17-.78.1-1.52-.21-2.19-.75-.55-1.52-.78-2.36-.8-.38-.01-.77-.1-1.15-.12-1.8-.11-3.18-.98-4.31-2.34-.65-.78-1.35-1.5-2.04-2.25-1.12-1.21-2.5-1.97-4.1-2.28-.8-.15-1.62-.16-2.44-.22-.36-.03-.72-.05-1.08-.08Z"/>
      <path class="cls-1" d="m148.66,178.02c.13,1.85-.33,3.44-1.17,4.95-1.84,3.31-4.58,5.66-7.93,7.32-1.07.53-2.19.96-3.38,1.23-1.28.29-2.48.13-3.68-.3-1.2-.42-2.24-1.1-3.17-1.95-1.7-1.57-2.45-3.54-2.29-5.84.12-1.69.55-3.31,1.36-4.82,1.73-3.23,4.25-5.69,7.34-7.58,1.89-1.15,4.01-1.59,6.19-1.7.78-.04,1.51.25,2.14.72.42.32.82.67,1.25.97,2.16,1.52,3.27,3.59,3.32,6.23,0,.29,0,.58,0,.76Zm-19.1,8.77c.11.23.22.46.33.69.04.05.09.09.13.14.58.66,1.27,1.17,2.03,1.6,1.47.82,2.98,1.03,4.59.48,3.18-1.08,5.88-2.89,7.99-5.49.69-.85,1.21-1.85,1.74-2.82.4-.72.61-1.53.59-2.36-.02-.96-.06-1.93-.11-2.89,0-.12-.15-.23-.23-.34l.05.05c-.07-.32-.08-.67-.21-.96-.86-1.97-2.54-3.03-4.29-3.98-.82.54-1.16,1.28-1.44,2.05-.3.81-.53,1.65-.79,2.47-.62,1.98-1.85,3.34-3.89,3.9-.14.04-.27.11-.41.15-1.28.38-2.39,1.01-3.18,2.12-.1.14-.23.32-.52.08.27-1.24.88-2.28,2.03-2.94.58-.33,1.19-.62,1.81-.87,1.34-.54,2.24-1.48,2.68-2.84.5-1.5,1.01-2.99,1.99-4.29-.18-.05-.27-.09-.36-.1-.09,0-.2,0-.29.02-2.98.8-5.38,2.48-7.36,4.81-.03.03-.02.09-.03.14-.17.17-.34.33-.51.5-1.49,1.44-2.45,3.19-3.02,5.16-.37,1.27-.43,2.57-.19,3.87.12.64.2,1.34.88,1.71l-.05-.05Z"/>
      <path class="cls-1" d="m21.06,154.98c-.4-.04-.51-.4-.7-.66-1.64-2.28-3.01-4.71-4.12-7.28-1.37-3.19-2.6-6.43-3.43-9.8-.34-1.36-.52-2.74-.46-4.15.01-.24.02-.49.11-.7.05-.12.26-.17.48-.3.16,1.16.26,2.21.46,3.24.72,3.7,2.01,7.23,3.39,10.72,1.06,2.69,2.33,5.29,3.77,7.79.21.36.59.67.46,1.17l.03-.02Z"/>
      <path class="cls-1" d="m191.43,194.85c.07.34-.22.39-.42.47-1.38.55-2.75,1.15-4.16,1.61-3.7,1.22-7.49,2.13-11.31,2.84-1.37.25-2.75.48-4.16.38-.21-.02-.48.07-.61-.21.04-.35.32-.31.53-.34,6.28-.72,12.37-2.26,18.39-4.12.59-.18,1.18-.39,1.77-.59l-.03-.04Z"/>
      <path class="cls-1" d="m100.26,199.08c2.97.61,5.82,1.23,8.67,1.78,2.86.56,5.75.88,8.67,1.12-.12.36-.38.39-.61.39-.72.02-1.45.07-2.16.01-4.36-.37-8.66-1.05-12.87-2.28-.5-.15-.99-.37-1.47-.58-.09-.04-.11-.21-.23-.44Z"/>
      <path class="cls-1" d="m269.91,159.7c-.33,1.34-1.06,2.35-1.86,3.3-2.69,3.23-5.63,6.21-8.93,8.82-1.24.98-2.55,1.88-3.82,2.81-.3-.27-.05-.39.05-.48,1.39-1.27,2.76-2.56,4.37-3.55,1.88-1.16,3.34-2.73,4.72-4.43,1.6-1.99,3.26-3.93,4.9-5.89.18-.21.39-.39.59-.58Z"/>
      <path class="cls-1" d="m273.27,118.92c.66.53.72.95.73,1.36,0,1.53.1,3.08-.07,4.6-.27,2.43-.71,4.84-1.12,7.25-.13.75-.36,1.49-.57,2.23-.06.22-.2.42-.36.62.61-5.25,1.55-10.45,1.39-16.06Z"/>
      <path class="cls-1" d="m83.94,196.93c-1.63.12-2.94-.25-4.24-.56-3.24-.75-6.4-1.78-9.4-3.23-.46-.22-1.02-.33-1.31-.99.21,0,.38-.04.52,0,1.94.71,3.86,1.51,5.82,2.15,2.78.91,5.59,1.7,8.61,2.62Z"/>
      <path class="cls-1" d="m14.76,115.51c-.2-1.19.11-1.97.35-2.73.34-1.05.74-2.08,1.2-3.08,1.1-2.41,2.45-4.67,3.93-6.86.31-.46.59-.96,1.11-1.25.27.37,0,.61-.12.83-.83,1.46-1.67,2.91-2.52,4.36-1.57,2.69-2.97,5.46-3.95,8.74Z"/>
      <path class="cls-1" d="m250.73,85.04c.38.28.76.57,1.16.82,2.58,1.64,4.92,3.56,6.83,5.96.45.56.83,1.18,1.23,1.78.09.14.09.33.19.74-1.06-.75-1.59-1.67-2.31-2.4-.78-.79-1.51-1.62-2.31-2.39-.76-.74-1.56-1.44-2.37-2.12-.81-.68-1.66-1.32-2.49-1.98.03-.16.05-.3.08-.44v.02Z"/>
      <path class="cls-1" d="m270.83,119.66c.49.1.48.47.55.78.4,1.7.38,3.44.24,5.16-.14,1.72-.49,3.42-1,5.07-.05.17-.12.34-.27.79-.24-1.26.16-2.15.21-3.08.05-1.01.21-2.01.26-3.01.05-.96,0-1.92.02-2.88.03-.94-.26-1.89-.01-2.84Z"/>
      <path class="cls-1" d="m22.02,150.89c-.53-.09-.69-.53-.88-.88-1.7-3.02-3.32-6.07-4.32-9.41-.05-.15.04-.35.06-.53.15.03.29.03.31.07,1.61,3.57,3.21,7.14,4.83,10.74Z"/>
      <path class="cls-1" d="m64.94,132.55c-.32-.69-.26-1.38-.15-2.06.4-2.47,1.11-4.86,2.25-7.1.26-.51.62-.97.96-1.42.09-.13.3-.17.6-.33-.04.6-.38.9-.54,1.27-.17.4-.38.78-.55,1.17-.17.4-.32.8-.48,1.2-.16.4-.31.81-.46,1.21-.13.36-.25.72-.37,1.09-.13.41-.25.83-.37,1.24-.12.41-.25.82-.37,1.24-.12.41-.24.83-.33,1.25-.09.41-.14.83-.2,1.24Z"/>
      <path class="cls-1" d="m189.28,193.13c-.13.11-.25.25-.39.31-3.17,1.38-6.45,2.42-9.83,3.16-.58.13-1.21.28-1.99-.02,1.4-.62,2.78-.74,4.09-1.12,1.38-.4,2.76-.79,4.13-1.21,1.32-.4,2.62-.83,3.93-1.24.02.04.04.08.06.12Z"/>
      <path class="cls-1" d="m274.86,149.99c.88-2.82,1.6-5.55,2.29-8.28.13-.51.26-1.02.43-1.52.05-.15.22-.26.39-.45.26.99-.07,1.82-.26,2.65-.51,2.25-1.22,4.43-2.16,6.54-.17.38-.45.71-.68,1.07Z"/>
      <path class="cls-1" d="m232.74,180.82c-.01.18.04.4-.05.52-.13.19-.34.34-.54.47-2.8,1.81-5.76,3.28-8.96,4.26-.51.16-1.02.21-1.59.07.22-.11.42-.26.65-.34,3.32-1.04,6.44-2.53,9.47-4.21.37-.2.69-.5,1.03-.75v-.02Z"/>
      <path class="cls-1" d="m56.75,181.32c1.3.21,2.45.46,3.62.55,1.24.1,2.49.05,3.74-.17,1.17-.21,2.35-.36,3.56-.54-.37.44-.88.56-1.37.72-1.9.63-3.87.68-5.84.63-.82-.02-1.63-.07-2.41-.35-.44-.16-.91-.28-1.29-.84Z"/>
      <path class="cls-1" d="m125.1,178.51c-1.28.6-2.35.6-3.38.7-1.29.12-2.6.09-3.89.06-.42,0-.84-.18-1.24-.3-.1-.03-.15-.2-.24-.32.88-.21,5.46-.29,8.76-.13Z"/>
      <path class="cls-1" d="m265.21,151.51c.26.52-.11.93-.29,1.33-1.36,2.96-3.35,5.73-4.96,6.96-.02-.08-.08-.2-.05-.25,1.93-2.47,3.41-5.24,5.03-7.91.04-.07.16-.08.27-.13Z"/>
      <path class="cls-1" d="m224.22,194.05c.34-.52.94-.63,1.45-.87,1.64-.79,3.32-1.52,4.95-2.33,1.33-.66,2.61-1.42,3.92-2.14.42-.23.84-.44,1.24-.65.29.19.02.28-.03.31-3.34,2.2-6.81,4.14-10.6,5.46-.3.11-.64.12-.96.18l.03.03Z"/>
      <path class="cls-1" d="m24.44,150.45c-.31-.37-.54-.59-.71-.86-1.29-2.14-2.57-4.28-3.83-6.44-.28-.48-.67-.96-.5-1.64.15.1.29.15.36.25,1.66,2.64,3.32,5.28,4.64,8.12.05.11.02.26.04.57Z"/>
      <path class="cls-1" d="m204.8,167.88c-.64.87-1.58,1.35-2.49,1.81-1.83.94-3.67,1.89-5.73,2.22-.1.02-.23-.11-.36-.18.07-.1.1-.21.16-.23,2.8-1.12,5.6-2.25,8.23-3.74.02-.01.08.05.19.12Z"/>
      <path class="cls-1" d="m82.37,194.97c-2.55-.23-4.73-1.1-6.93-1.87-.6-.21-1.28-.35-1.74-1.03.22-.03.36-.09.47-.06,2.59.85,5.17,1.71,7.75,2.57.11.04.19.16.45.39Z"/>
      <path class="cls-1" d="m93.91,206.06c-2.19.07-8.57-1.46-10.13-2.37.05-.07.11-.19.15-.19,3.35.77,6.68,1.61,9.98,2.56Z"/>
      <path class="cls-1" d="m106.59,198.83c3.2.49,6.4.98,9.73,1.5-1.5.49-2.91.19-4.27.02-1.87-.23-3.78-.41-5.46-1.52Z"/>
      <path class="cls-1" d="m148,186.64c-1.47,1.9-3.33,3.32-5.44,4.38-.76.38-1.53.8-2.68.69,1.04-.66,2.03-.95,2.89-1.49.89-.56,1.79-1.12,2.66-1.72.87-.6,1.71-1.24,2.57-1.86Z"/>
      <path class="cls-1" d="m41.29,178.4c.04.4.4.5.65.71.66.54,1.34,1.07,2.01,1.6l-.05.06c-.23-.06-.48-.08-.68-.19-2.16-1.28-4.23-2.69-6.07-4.41-.35-.32-.64-.69-.96-1.03.24-.29.39-.16.54-.04.86.69,1.72,1.4,2.59,2.08.26.2.49.48.88.41.07.07.15.14.22.22.17.41.47.63.92.65l-.05-.05Z"/>
      <path class="cls-1" d="m218.69,174.67c-.59.66-1.25.72-1.84.79-1.83.22-3.62-.09-5.35-.72-.29-.11-.66-.23-.48-.8,2.47.52,4.92,1.41,7.67.73Z"/>
      <path class="cls-1" d="m239.08,186.07c.21-.19.39-.39.61-.54,2.3-1.47,4.61-2.92,6.92-4.37.23-.14.5-.2.84-.14-.56.41-1.11.84-1.69,1.22-2.12,1.39-4.23,2.79-6.51,3.93-.02.01-.08-.05-.17-.11Z"/>
      <path class="cls-1" d="m153.19,168.26c-.57.57-1.31.59-2,.72-1.47.28-2.94.5-4.45.44-.34-.01-.69,0-.86-.49,2.42-.44,4.88-.37,7.3-.67Z"/>
      <path class="cls-1" d="m84.16,144.43c-.68-.8-.73-1.58-.83-2.31-.21-1.61-.48-3.23,0-4.85.05-.15.18-.28.38-.58.23.58.13.99.13,1.39,0,.38-.02.77-.02,1.15,0,.43,0,.86.01,1.29,0,.43.02.86.05,1.29.02.38.07.76.11,1.14.05.42.1.84.17,1.48Z"/>
      <path class="cls-1" d="m241.78,153.45c.69-1.12,1.56-1.78,2.47-2.4.87-.59,1.76-1.13,2.73-1.75-.04.21-.05.38-.12.53-.24.54-.65.95-1.13,1.27-1.15.77-2.31,1.55-3.47,2.31-.06.04-.17.02-.49.03Z"/>
      <path class="cls-1" d="m125.65,188.9c1.94,1.84,4.22,3,7.14,3.6-2.28.38-3.87-.53-5.43-1.44-1.14-.67-1.53-1.2-1.71-2.16Z"/>
      <path class="cls-1" d="m182.11,177.54c1.99-1.34,2.93-3.3,4.48-4.88.01.26.06.4.02.51-.64,1.47-1.53,2.76-2.76,3.79-.29.24-.64.41-.98.57-.14.06-.33.01-.76.01Z"/>
      <path class="cls-1" d="m251.2,110.16c-.06.47-.11.88-.19,1.52-.64-2.74-.87-3.56-2.49-5.55.27.04.47,0,.56.1.38.36.76.74,1.07,1.15.3.4.37,1,.99,1.11.33.58.57,1.18.54,1.9-.2-.09-.33-.16-.49-.23Z"/>
      <path class="cls-1" d="m85.15,166.57s.09-.03.13-.04c.05,0,.1,0,.14.03,1.41.99,2.82,1.98,4.22,2.97.02.01.01.07.03.2-1.73-.35-3.11-1.24-4.33-2.42-.2-.19-.42-.42-.18-.74Z"/>
      <path class="cls-1" d="m262.42,153.06c.06.07.17.14.17.19-.01.14-.05.29-.13.4-1.11,1.7-2.45,3.19-4.03,4.47-.09-.09-.14-.12-.15-.16,0-.03.02-.09.05-.12,1.31-1.6,2.62-3.19,3.94-4.78.02-.02.09,0,.14,0Z"/>
      <path class="cls-1" d="m238.94,158.57c.26,1-.03,1.78-.33,2.48-.84,1.94-1.36,3.31-2.87,4.3.6-1.05,1.28-2.07,1.8-3.17.52-1.1.89-2.28,1.39-3.61Z"/>
      <path class="cls-1" d="m154.98,174.99c.65.1,1.04.55,1.52.8.51.26,1,.57,1.51.83.51.26,1.04.48,1.57.71.52.22,1.05.43,1.54.72-1.78,0-3.29-.82-4.79-1.65-.92-.51-.97-.61-1.36-1.41Z"/>
      <path class="cls-1" d="m200.04,199.69s.03-.1.06-.13c.06-.07.12-.17.2-.19,2.34-.7,4.68-1.38,7.02-2.07.03,0,.08.05.12.07-1.99,1.17-5.84,2.38-7.41,2.31Z"/>
      <path class="cls-1" d="m67.92,132.63c-.05-.12-.14-.24-.13-.36.16-1.72.29-3.44.76-5.11.06-.22.19-.43.32-.63.04-.06.16-.06.25-.08.03.04.08.08.08.11-.33,2.02-.67,4.04-1.01,6.06-.09,0-.17,0-.26.01Z"/>
      <path class="cls-1" d="m251.29,141.07c.05.2.12.31.09.36-1.1,1.91-2.18,3.82-3.01,5.87-.02.05-.15.05-.22.08.31-2.45,1.54-4.43,3.14-6.31Z"/>
      <path class="cls-1" d="m49.03,188.95c-2.74-.83-6.07-2.49-7.45-3.76.32.07.48.07.61.14,2.16,1.05,4.32,2.11,6.47,3.16.21.1.47.17.34.5l.03-.03Z"/>
      <path class="cls-1" d="m109.4,197.16c2.38.21,4.73.6,7.06,1.08-1.39.33-2.74-.04-4.08-.24-1.01-.15-2.09-.16-2.98-.84Z"/>
      <path class="cls-1" d="m186.51,192.18c-2.23,1.06-4.33,1.8-6.71,2.16.16-.24.21-.41.3-.44,2.01-.63,4.03-1.24,6.05-1.85.04-.01.09.03.35.13Z"/>
      <path class="cls-1" d="m106.49,174.75c2.09.78,4.18,1.56,6.54,2.44-1.47.03-2.55-.38-3.63-.77-1.06-.39-2.19-.69-2.91-1.67Z"/>
      <path class="cls-1" d="m250.78,87.56c.37.19.76.35,1.1.59.98.69,1.94,1.4,2.89,2.12.34.26.34.34.35,1.06-1.55-1.22-3.04-2.39-4.53-3.56.06-.07.13-.14.19-.21Z"/>
      <path class="cls-1" d="m14.37,162.54c-.12-.08-.26-.13-.34-.23-1.29-1.61-2.46-3.29-3.41-5.12-.22-.41-.36-.84-.49-1.39.22.13.34.16.37.23.92,2.01,2.22,3.79,3.46,5.59.19.27.32.57.48.86,0,0-.07.06-.07.06Z"/>
      <path class="cls-1" d="m66.74,182.8c-1.48.86-3.08,1.15-4.75,1.12-.35,0-.76.08-1.1-.43,1.1-.06,2.09-.08,3.06-.19.94-.11,1.86-.32,2.8-.49Z"/>
      <path class="cls-1" d="m20.11,109.09c-.8,1.85-1.59,3.7-2.37,5.53q-.12-.71.34-1.89c.28-.72.57-1.43.87-2.14.62-1.44.62-1.44,1.16-1.5Z"/>
      <path class="cls-1" d="m111.17,177.83c-1.73-.22-3.37-.49-4.83-1.4-.08-.05-.09-.23-.17-.47,1.55.35,2.91.93,4.33,1.34.18.05.35.14.52.24.06.04.08.14.16.29Z"/>
      <path class="cls-1" d="m225.36,183.55c1.1-.85,4.31-2.47,5.48-2.72-.62.63-1.28.99-1.93,1.33-1.02.53-2.07.99-3.12,1.45-.11.05-.27-.03-.43-.06Z"/>
      <path class="cls-1" d="m85.66,168.76c1.7.79,3.11,1.44,4.52,2.09-1.17.2-2.15-.25-3.12-.74-.5-.25-1.07-.43-1.4-1.35Z"/>
      <path class="cls-1" d="m207.21,198.52c-1.27.87-2.73,1.31-4.18,1.76-.35.11-.73.12-1.3.21.26-.24.34-.37.45-.41,1.65-.59,3.3-1.17,5.03-1.56Z"/>
      <path class="cls-1" d="m242.54,155.09c.57-.33,1.15-.66,1.72-1,.56-.34.96-.93,1.86-1.19-.84,1.2-1.64,2.08-2.85,2.52-.32.12-.56.07-.72-.34Z"/>
      <path class="cls-1" d="m149.35,187.66c-.69,1.36-1.71,2.34-2.92,3.11-.22.14-.49.32-.77.09.04-.08.05-.19.11-.24,1.19-.99,2.39-1.97,3.59-2.96Z"/>
      <path class="cls-1" d="m118.31,180.1c1.58-.08,3.15-.17,5.05-.27-.36.28-.47.43-.59.44-1.34.12-2.67.22-4.01.3-.17.01-.34-.11-.51-.17.02-.1.04-.2.06-.3Z"/>
      <path class="cls-1" d="m42.71,187.27c1.82.79,3.54,1.53,5.26,2.28-1.49,0-2.78-.64-4.07-1.25-.67-.31-.66-.33-1.2-1.02Z"/>
      <path class="cls-1" d="m200.81,171.23c1.2-.67,2.41-1.34,3.63-2.01.06-.03.17.04.26.07-1.05,1.19-2.87,2.26-3.8,2.23-.03,0-.05-.15-.09-.29Z"/>
      <path class="cls-1" d="m232.18,169.55c-.08-.14-.13-.18-.12-.22.02-.14.02-.3.1-.41.22-.32.43-.65.7-.91.56-.53,1.15-1.01,1.84-1.6-.37.88-1.66,2.47-2.52,3.14Z"/>
      <path class="cls-1" d="m40.43,177.8c-.07-.07-.15-.14-.22-.22-.06-.17-.12-.33-.25-.71,1.53.81,2.78,1.66,4.31,2.72-.54-.1-.75-.1-.93-.18-.69-.32-1.37-.67-2.05-1.01,0,0,.05.05.05.05-.31-.22-.61-.44-.92-.65Z"/>
      <path class="cls-1" d="m240.5,159.74c0,1.29-.48,2.37-1.46,3.52-.02-1.25.48-2.11.81-3.02.09-.26.2-.55.66-.5Z"/>
      <path class="cls-1" d="m212.97,175.97c.61-.24,1.1.01,1.6.05.47.04.95.09,1.42.07.51-.02,1.02-.1,1.69-.17-.74.67-1.52.69-2.24.67-.82-.03-1.7.02-2.47-.62Z"/>
      <path class="cls-1" d="m273.79,147.07c.59-1.74,1.07-3.17,1.55-4.61.33.85-.34,2.98-1.55,4.61Z"/>
      <path class="cls-1" d="m125.74,191.06c1.07.58,2.15,1.15,3.32,1.78-.55.21-.97.06-1.39-.13-.79-.34-1.56-.69-1.92-1.65Z"/>
      <path class="cls-1" d="m151.95,169.89c-1.12.38-2.26.54-3.54.38.12-.18.18-.36.26-.37.37-.07.76-.1,1.14-.13.33-.03.67-.03,1.01-.06.37-.03.74-.08,1.11-.12.01.1.02.2.03.3Z"/>
      <path class="cls-1" d="m179.29,179.2c0,.09.05.22.01.26-.79.77-2.16,1.28-3.48,1.32,0-.08,0-.21.03-.23,1.15-.44,2.31-.88,3.47-1.31,0,0-.03-.04-.03-.04Z"/>
      <path class="cls-1" d="m254.23,135.03c.2,1.3-.39,2.2-1.21,3.15.31-1.72.58-2.43,1.21-3.15Z"/>
      <path class="cls-1" d="m159.78,179.16c-.86.3-1.46-.07-2.05-.27-.56-.18-1.19-.32-1.56-.91.12-.05.22-.14.29-.11,1.06.4,2.11.81,3.32,1.28Z"/>
      <path class="cls-1" d="m226.53,181.1c1.14-.57,2.27-1.14,3.42-1.72.22.23-.03.34-.14.43-.96.71-2.01,1.21-3.28,1.29Z"/>
      <path class="cls-1" d="m189.05,172.79c.24,1.11-.17,1.99-1.24,2.76.06-.32.06-.5.13-.63.36-.71.74-1.42,1.12-2.13Z"/>
      <path class="cls-1" d="m81.93,137.89c.36,1.13.48,2.28.48,3.78-.7-1.42-.58-2.6-.48-3.78Z"/>
      <path class="cls-1" d="m99.96,171.34c-.59.12-1.19.25-1.78.34-.13.02-.28-.12-.6-.28.91-.37,1.61-.66,2.38-.07Z"/>
      <path class="cls-1" d="m101.68,171.82c.09-.01.2-.06.26-.02.75.49,1.5.99,2.33,1.54-1.04.04-1.94-.52-2.59-1.51Z"/>
      <path class="cls-1" d="m73.73,173.59c.36,1.06.33,1.19-.53,2.22.2-.83.25-1.48.53-2.22Z"/>
      <path class="cls-1" d="m71.76,175.7c.27-1.04.44-1.72.62-2.4.33.76.37,1.18.09,1.8-.08.17-.31.28-.7.6Z"/>
      <path class="cls-1" d="m14.98,161.06c-.83-.71-1.08-1.1-1.42-2.4.61.92,1.25,1.52,1.41,2.41l.02-.02Z"/>
      <path class="cls-1" d="m252.01,177.28c.22-.76.92-.96,1.52-1.29-.4.56-.82,1.09-1.53,1.28h.01Z"/>
      <path class="cls-1" d="m252,177.27c-.21.56-.68.82-1.21,1.01.3-.46.63-.89,1.22-1,0,0-.01-.01-.01-.01Z"/>
      <path class="cls-1" d="m14.96,161.08c.6.12.68.74,1.29,1.27-.84-.32-1.14-.73-1.27-1.29,0,0-.02.02-.02.02Z"/>
      <path class="cls-1" d="m15.29,163.64c-.51-.19-.76-.61-.92-1.1,0,0,.07-.06.07-.06.46.27.73.67.81,1.2l.03-.03Z"/>
      <path class="cls-1" d="m43.95,180.71c.2.04.39.09.72.16-.41.2-.65.27-.77-.1,0,0,.05-.06.05-.06Z"/>
      <path class="cls-1" d="m21.04,155c.37-.02.37.32.5.53-.41.02-.51-.21-.47-.56,0,0-.03.02-.03.02Z"/>
      <path class="cls-1" d="m15.25,163.67c.13.13.25.26.47.48-.43-.08-.46-.27-.43-.51,0,0-.03.03-.03.03Z"/>
      <path class="cls-1" d="m229.24,76.2c.19-.08.39-.16.58-.24.02.06.04.11.06.17-.21.02-.42.04-.63.06,0,0,0,0,0,0Z"/>
      <path class="cls-1" d="m49,188.99c.2-.04.41-.07.74-.14-.32.37-.51.16-.71.1,0,0-.03.04-.03.04Z"/>
      <path class="cls-1" d="m227.95,79.49c.19,0,.37.02.73.04-.41.23-.59.2-.71-.07,0,0-.02.03-.02.03Z"/>
      <path class="cls-1" d="m232.75,180.84c.09,0,.18,0,.27,0,.04,0,.08.02.12.04-.06.05-.13.14-.17.13-.08-.03-.14-.11-.22-.18,0,0,0,.01,0,.01Z"/>
      <path class="cls-1" d="m179.32,179.24c.1-.04.2-.08.3-.12,0,.04,0,.08,0,.12-.11,0-.22-.02-.33-.03,0,0,.03.04.03.04Z"/>
      <path class="cls-1" d="m228.38,77.86c.11-.01.23-.02.34-.03-.11.01-.22.03-.34.04,0,0,0-.01,0-.01Z"/>
      <path class="cls-1" d="m240.13,77.16c.11.04.22.08.32.12-.03.03-.06.09-.1.09-.16,0-.27-.04-.2-.24,0,0-.03.03-.03.03Z"/>
      <path class="cls-1" d="m191.46,194.88c.07-.06.14-.12.23-.16.03-.02.09,0,.13.02-.04.06-.07.16-.11.17-.09.01-.18-.03-.28-.05,0,0,.03.03.03.03Z"/>
      <path class="cls-1" d="m224.19,194.02c-.07.09-.18.26-.19.25-.27-.18.02-.16.08-.21.03-.02.09,0,.14,0,0,0-.03-.03-.03-.03Z"/>
      <path class="cls-1" d="m250.73,85.02c-.07.06-.13.14-.21.17-.06.02-.14-.02-.22-.04.05-.04.1-.09.15-.1.08-.01.17,0,.27,0,0,0,0-.02,0-.02Z"/>
      <path class="cls-1" d="m205.81,70.28c.26.4.39.5.39.61.45,7.66-.42,15.19-2.06,22.66-.19.87-.31,1.8-1.11,2.75.87-4.44,1.63-8.62,1.98-12.86.35-4.27.52-8.55.79-13.16Z"/>
      <path class="cls-1" d="m221.54,57.5c.09,1.02.31,1.97.34,2.96.17,4.97-.06,9.92-.89,14.84-.22,1.28-.54,2.54-.86,3.8-.1.39-.15.86-.58,1.09-.06-.01-.11,0-.13-.03-.03-.03-.05-.09-.05-.13.65-4.48,1.32-8.96,1.64-13.48.12-1.73.17-3.47.22-5.2.03-1.06-.02-2.12-.04-3.18,0-.1.02-.19.03-.29,0-.05.02-.1.03-.14.02-.05.03-.09.06-.13.03-.03.08-.04.22-.12Z"/>
      <path class="cls-1" d="m190.92,141.76c-2.79,3.96-13.39,12.17-16.84,13.17-.19-.22.04-.35.14-.44.52-.43,1.04-.86,1.6-1.23,4.86-3.21,9.42-6.81,13.87-10.57.31-.26.65-.5,1.23-.93Z"/>
      <path class="cls-1" d="m87.47,130.41c.16.1.3.15.38.24,4.05,5.02,8.1,10.04,12.15,15.06.02.02-.03.08-.04.13-3.18-2.22-8.81-9.29-12.07-14.23-.22-.34-.57-.66-.42-1.2Z"/>
      <path class="cls-1" d="m99.46,140.81c.14,0,.19-.01.23,0,.08.04.18.09.23.16,2.95,3.87,6.15,7.53,9.5,11.05.02.02-.02.08-.05.19-.17-.05-.37-.06-.51-.16-.43-.31-.86-.62-1.25-.97-2.85-2.62-5.43-5.47-7.5-8.75-.21-.33-.41-.65-.58-1-.07-.15-.05-.34-.07-.52Z"/>
      <path class="cls-1" d="m75.62,110c-.16-.05-.4-.05-.48-.16-.25-.35-.45-.74-.64-1.13-1.89-3.98-3.28-8.12-4.12-12.44-.06-.33-.08-.67-.09-1,0-.12.07-.25.15-.51.18.19.35.3.39.44.2.64.39,1.29.55,1.94.94,3.79,2.01,7.53,3.43,11.17.23.58.5,1.14.75,1.71l.04-.02Z"/>
      <path class="cls-1" d="m174.24,81.4c.19-.21.25-.32.32-.33,5.2-.92,10.14-2.81,15.29-4.07-.25.15-.48.34-.74.44-2.12.77-4.24,1.54-6.37,2.29-1.95.68-3.95,1.21-5.97,1.62-.8.17-1.61.23-2.53.05Z"/>
      <path class="cls-1" d="m193.11,136.75c-.16.74-.71,1.21-1.21,1.69-2.86,2.8-5.78,5.54-9.3,7.52-.1.06-.27,0-.41-.01,0-.07,0-.11,0-.15.01-.04.03-.1.07-.13.25-.22.5-.45.77-.65,3.47-2.61,6.74-5.45,10.08-8.27Z"/>
      <path class="cls-1" d="m75.8,77.42c.12,5.05.3,10.09.92,15.17-.07-.11-.19-.22-.21-.34-.26-1.12-.58-2.24-.73-3.38-.49-3.54-.81-7.09-.52-10.66.02-.27.15-.53.23-.79.1,0,.21,0,.31,0Z"/>
      <path class="cls-1" d="m215.27,101.8s-.09-.05-.09-.08c.03-.28.03-.57.1-.85,1.13-4.48,2.28-8.95,3.42-13.43.03-.12.12-.23.25-.46.11,1.25-.21,2.33-.38,3.41-.58,3.67-1.45,7.27-2.81,10.73-.1.24-.15.57-.49.66Z"/>
      <path class="cls-1" d="m139.34,81.44c-2.13.02-4.2.08-6.26-.09-1.87-.15-3.75-.28-5.61-.48-1.05-.11-2.08-.35-3.12-.56-.21-.04-.4-.2-.59-.3.05-.12.05-.17.07-.18.04-.03.09-.05.13-.05,5.05.77,10.16.83,15.22,1.46.03,0,.06.07.16.2Z"/>
      <path class="cls-1" d="m205.43,123.83c1.66-4.08,3.21-7.88,4.76-11.67.05.01.09.02.14.03-.04.37-.04.75-.13,1.11-.75,2.93-1.73,5.78-3.09,8.49-.3.6-.68,1.15-1.05,1.71-.08.12-.28.16-.62.33Z"/>
      <path class="cls-1" d="m107.49,89.49c-.51-1.18-.79-4.34-.64-7.57.08-1.74,0-3.52.61-5.24.14.09.27.14.27.18-.32,4.21-.32,8.43-.23,12.63Z"/>
      <path class="cls-1" d="m66.7,75.45c-1.18-2.86-1.18-10.99-.1-13.54.36.02.32.28.3.51-.2,2.39-.47,4.78-.4,7.18.05,1.58.13,3.16.19,4.74.01.29,0,.57,0,1.1Z"/>
      <path class="cls-1" d="m145.37,163.44c-.38.24-.52.39-.67.42-2.91.5-5.85.53-8.78.25-.73-.07-1.56,0-2.18-.55.08-.33.31-.37.56-.35,1.06.06,2.11.15,3.17.2,2.54.12,5.08.34,7.9.03Z"/>
      <path class="cls-1" d="m103.99,143.79c.16-.05.2-.07.24-.07.05,0,.1,0,.13.02.08.05.16.11.23.18,2.2,2.41,4.4,4.83,6.6,7.25.05.05.03.15.04.24-.85-.28-.94-.33-1.77-1.08-1.81-1.62-4.95-5.06-5.48-6.54Z"/>
      <path class="cls-1" d="m202.92,76.61c.45.14.41.46.43.73.24,4.11-.08,8.15-1.3,12.1-.1-1.44.35-2.83.45-4.25.1-1.44.19-2.88.28-4.32.09-1.41-.11-2.84.13-4.27Z"/>
      <path class="cls-1" d="m198.94,90.13c.04-.61.05-1.22.12-1.83.33-2.87.68-5.73,1.04-8.59,0-.08.1-.16.16-.22.03-.03.09-.03.14-.05.21,2.09-.25,6.13-1.45,10.69Z"/>
      <path class="cls-1" d="m114.36,151.46c-.35-.04-.52,0-.6-.07-.78-.63-1.59-1.24-2.3-1.94-1.2-1.17-2.36-2.38-3.25-3.82-.04-.06.03-.18.06-.38.17.12.31.19.42.31,1.85,1.92,3.69,3.84,5.67,5.91Z"/>
      <path class="cls-1" d="m118.39,152.1c-.41-.06-.62-.05-.77-.13-1.88-.99-3.52-2.3-4.96-3.86-.24-.26-.54-.56-.33-1.09.25.2.48.34.67.53,1.62,1.6,3.63,2.75,5.39,4.55Z"/>
      <path class="cls-1" d="m219.36,69.01c-.19-1.81.07-6.69.44-8.21.11.39.21.6.23.82.05.95.15,1.91.09,2.86-.08,1.33-.27,2.66-.43,3.99-.01.12-.13.22-.32.54Z"/>
      <path class="cls-1" d="m89.05,127.96c1.18,1.34,4.2,5.78,4.79,7.02-.17-.07-.33-.08-.39-.17-1.3-1.73-2.59-3.47-3.87-5.21-.22-.31-.38-.67-.52-1.02-.06-.14,0-.33,0-.62Z"/>
      <path class="cls-1" d="m179.62,82.25c2.9-1.01,5.77-1.97,8.66-2.85-2.16,1.39-4.59,2.08-7,2.83-.53.17-1.1.31-1.66.03Z"/>
      <path class="cls-1" d="m186.2,141.05c1.83-2.01,3.85-3.82,5.91-5.6.26.21.06.37-.04.47-1.73,1.72-3.47,3.43-5.22,5.13-.12.12-.31.16-.47.24-.06-.08-.12-.16-.18-.25Z"/>
      <path class="cls-1" d="m72.39,59.95c.13,1.14-.19,5.82-.47,7.49-.55-1.4-.33-5.82.47-7.49Z"/>
      <path class="cls-1" d="m110.36,80.74c.12,1.13-.14,2.24-.14,3.36,0,1.1-.05,2.2-.07,3.31-.11,0-.23.02-.24,0-.08-.22-.19-.45-.21-.68-.13-1.87-.14-3.73.23-5.58.03-.13.12-.25.19-.37.02-.03.09-.01.24-.03Z"/>
      <path class="cls-1" d="m77.23,81.76c.49,1.12.81,4.93.72,6.78-.18-.28-.35-.44-.38-.62-.38-1.85-.43-3.72-.44-5.6,0-.18.06-.37.1-.55Z"/>
      <path class="cls-1" d="m84.97,67.83c-.12,2.24-.6,4.24-.97,6.28-.14-.07-.28-.1-.28-.13-.03-1.69.32-3.34.61-5,.06-.35.02-.78.65-1.14Z"/>
      <path class="cls-1" d="m102.8,74.71c.27,1.99-.03,4.84-.65,6.17-.19-2.04.19-3.97.33-5.92,0-.06.13-.11.32-.25Z"/>
      <path class="cls-1" d="m89.25,78.45c-.43-2.32-.17-4.53.16-6.71.32-.04.45.08.44.3-.05.76-.12,1.52-.19,2.28-.13,1.38-.27,2.75-.41,4.13Z"/>
      <path class="cls-1" d="m67.7,66.28c.3,1.2.37,4.36.16,6.59-.14-.36-.24-.54-.27-.72-.32-1.76-.18-3.54-.16-5.31,0-.15.14-.3.27-.55Z"/>
      <path class="cls-1" d="m149.11,162.93c2.27-.24,4.41-.46,6.54-.67.07,0,.15.06.35.14-1.82.65-3.61.8-5.41.94-.46.04-.95.04-1.48-.41Z"/>
      <path class="cls-1" d="m108.78,79.82c.02,2,.05,4.01.06,6.01,0,.05-.13.11-.28.23-.15-1.7-.33-3.34-.35-4.99,0-.33.06-.66.12-.99.02-.12.14-.22.22-.33.07.02.15.05.22.07Z"/>
      <path class="cls-1" d="m86.82,78.24c-.04-2.4.1-4.61.59-6.79.23,1.15-.19,5.45-.59,6.79Z"/>
      <path class="cls-1" d="m81.21,121.71c-1.49-1.75-2.55-3.64-2.78-4.84.14.05.29.06.35.14,1.1,1.41,1.93,2.96,2.42,4.71Z"/>
      <path class="cls-1" d="m75.34,67.67c-.52-1.22-.43-2.48-.39-3.72,0-.26.19-.51.37-.96.14.41.28.62.28.84.02,1.29.12,2.59-.26,3.85Z"/>
      <path class="cls-1" d="m143.54,162.31c-1.49.6-3.54.74-5.3.4-.09-.35.17-.39.4-.39,1.57-.01,3.14,0,4.9,0Z"/>
      <path class="cls-1" d="m100.28,78.82c-.02-.37-.08-.74-.06-1.11.07-1.29.17-2.57.27-3.85,0-.05.14-.1.31-.2.22,1.78.12,3.49-.24,5.19-.09,0-.19-.01-.28-.02Z"/>
      <path class="cls-1" d="m206.71,116.46c.01,1.54-.93,3.97-1.84,4.89-.04-.15-.13-.28-.1-.38.48-1.5,1.12-2.93,1.94-4.51Z"/>
      <path class="cls-1" d="m85.5,75.02c-.16-1.6.05-3.17.24-4.74.02-.16.15-.31.38-.78.16,2.12-.11,3.84-.63,5.52Z"/>
      <path class="cls-1" d="m91.52,73.01c.24,1.28.22,3.26-.13,4.97-.12-.34-.21-.46-.21-.59-.02-1.29-.03-2.57-.03-3.86,0-.25.09-.47.38-.52Z"/>
      <path class="cls-1" d="m73.51,67.35c-.17-1.82-.08-3.46.29-5.18.15.1.32.16.33.24.12,1.01-.22,3.78-.62,4.94Z"/>
      <path class="cls-1" d="m191.22,134.14c-.03.14-.03.31-.11.4-.9,1.07-1.8,2.14-2.72,3.18-.24.27-.53.6-1.08.32,1.23-1.32,2.37-2.66,3.68-3.85.05-.05.18-.02.27-.02,0,0-.03-.03-.03-.03Z"/>
      <path class="cls-1" d="m68.36,86.24c-.17-.36-.3-.55-.35-.77-.36-1.58-.46-3.34-.31-4.69.48.81.82,3.41.66,5.45Z"/>
      <path class="cls-1" d="m66.05,57.38c-.51-1.36-.14-2.54-.12-3.7,0-.3.15-.6.23-.89.49.08.52.38.5.66-.1,1.25-.2,2.51-.62,3.94Z"/>
      <path class="cls-1" d="m151.31,161.51c.14-.1.24-.23.35-.25,1.39-.24,2.79-.51,4.29-.56-.97.79-2.91,1.12-4.64.81Z"/>
      <path class="cls-1" d="m91.01,129.07c.4.29.59.39.74.54.94.99,1.75,2.21,2.32,3.44-.23.23-.35-.02-.44-.14-.81-1.02-1.6-2.04-2.38-3.08-.1-.13-.1-.33-.23-.76Z"/>
      <path class="cls-1" d="m218.23,65.93c-.16-1.45-.15-2.89-.01-4.34.52,1.22.42,2.52.41,3.8,0,.22.02.49-.4.54Z"/>
      <path class="cls-1" d="m216.44,62.24c.69.99.66,2.08.74,3.16,0,.09-.13.2-.2.31-.1-.1-.2-.15-.21-.21-.12-1.09-.22-2.17-.33-3.26Z"/>
      <path class="cls-1" d="m128.97,82.45h4.39s0,.06,0,.08h-4.39s0-.06,0-.08Z"/>
      <path class="cls-1" d="m172.44,156.19c-.59.73-1.29,1.01-1.98,1.3-.08.03-.24-.07-.33-.15-.03-.03,0-.21.04-.25.65-.45,1.34-.79,2.27-.91Z"/>
      <path class="cls-1" d="m127.22,82.13c.18,0,.36.02.54.02,0,.03,0,.06,0,.09-.18.01-.36.02-.54.03,0-.05,0-.1,0-.15Z"/>
      <path class="cls-1" d="m191.26,134.17s-.08-.1-.07-.12c.08-.09.16-.18.25-.27.02.04.06.1.05.12-.08.09-.18.16-.27.24,0,0,.04.03.04.03Z"/>
      <path class="cls-1" d="m75.59,110.02c.03.09.06.18.08.27,0,.04-.02.08-.04.12-.05-.06-.15-.11-.15-.16,0-.08.08-.16.13-.24,0,0-.03.02-.03.02Z"/>
      <path class="cls-1" d="m140.21,70.7c-3.36-.16-7.41-.24-11.45-.58-8.95-.76-17.75-2.32-26.31-5.13-5.1-1.68-10.01-3.75-14.57-6.61-2.58-1.62-5-3.45-7.12-5.65-1.68-1.75-3.12-3.67-4.17-5.87-2.17-4.55-2.17-9.11-.06-13.68.9-1.94,2.09-3.69,3.48-5.3,2.29-2.65,4.97-4.84,7.88-6.77,4.04-2.67,8.38-4.74,12.89-6.47,5.72-2.19,11.6-3.81,17.62-4.98,3.41-.66,6.83-1.22,10.27-1.59,3.21-.35,6.43-.66,9.66-.67.67,0,1.34.03,2-.2.31-.11.67-.06,1.01-.06,3.38,0,6.75-.06,10.13.02,2.36.06,4.72.25,7.07.47,2.78.26,5.56.54,8.33.95,9.57,1.41,18.87,3.81,27.6,8.08,3.39,1.66,6.59,3.62,9.48,6.06,1.89,1.59,3.59,3.36,4.99,5.4.85,1.24,1.57,2.54,2.11,3.94,1.47,3.82,1.43,7.63-.04,11.43-.93,2.41-2.35,4.53-4.04,6.47-1.88,2.15-4.04,4-6.37,5.65-4.6,3.25-9.63,5.65-14.88,7.63-5.92,2.23-12.01,3.83-18.22,4.99-3.6.67-7.22,1.22-10.86,1.6-3.26.34-6.52.64-9.81.69-1.98.03-3.95.12-6.62.2Zm38.8-38.65c.11.06.23.13.34.18.03.01.12-.04.12-.05-.02-.07-.03-.16-.07-.19-.07-.05-.17-.06-.26-.08-.35-.23-.68-.51-1.06-.69-1.56-.72-3.17-1.34-4.84-1.75-.18-.05-.39,0-.58,0,1.78.88,3.59,1.62,5.4,2.35.3.12.64.16.97.23Zm-67.09-1.53c.47-.04.95-.03,1.42-.12,1.23-.23,2.45-.5,3.68-.75,1.89-.38,3.78-.75,5.66-1.14.41-.09.81-.26,1.35-.43-.24-.22-.36-.39-.51-.44-.65-.22-1.32-.25-2-.18-1.49.15-2.95.46-4.39.86-1.58.45-3.14.94-4.6,1.68-.24.12-.57.18-.58.55-.12.01-.25.03-.37.04.03.05.07.1.1.15.08-.07.16-.15.24-.22Zm93.18-1.42c.33-.12.55.09.78.26.89.66,1.77,1.34,2.66,1.99.16.12.31.39.66.16-.18-.76-.6-1.37-1.18-1.89-.97-.87-1.93-1.75-2.88-2.64-.11-.1-.34-.23-.09-.49.19.12.38.26.59.37.2.11.35.42.78.18-.8-.81-1.51-1.59-2.28-2.32-2.72-2.57-5.83-4.58-9.13-6.32-5.44-2.86-11.2-4.87-17.15-6.38-5.56-1.41-11.2-2.37-16.9-2.99-3.36-.36-6.72-.65-10.09-.74-4.96-.14-9.93-.22-14.88.21-2.3.2-4.61.37-6.9.68-2.86.38-5.71.85-8.56,1.34-5.56.96-11.01,2.36-16.34,4.19-5.12,1.75-10.04,3.93-14.64,6.81-3,1.88-5.78,4.01-8.16,6.65-1.36,1.51-2.55,3.15-3.43,4.99-.08.18-.09.39-.2.84.64-.71,1.08-1.22,1.54-1.71.46-.49.93-.98,1.42-1.44.46-.45.88-.96,1.51-1.23-.18.39-.42.73-.67,1.05-.29.38-.6.76-.9,1.14-.27.34-.54.68-.81,1.02-.3.38-.6.75-.88,1.14-.24.33-.58.62-.65,1.13.51-.06.62-.6,1.21-.69-.29.45-.48.77-.69,1.08-.69.99-1.37,1.98-2.09,2.95-.49.66-.54,1.34-.29,2.23.19-.27.32-.41.4-.57,1.85-3.62,4.48-6.61,7.54-9.24,3.57-3.07,7.54-5.52,11.76-7.56,8.96-4.35,18.47-6.85,28.27-8.35,2.9-.45,5.82-.82,8.76-.96,3.27-.16,6.55-.38,9.82-.45,2.31-.05,4.63.08,6.94.21,2.98.17,5.97.34,8.94.67,3.49.38,6.96.94,10.41,1.63,5.44,1.08,10.78,2.48,15.99,4.39,6.63,2.43,12.93,5.52,18.58,9.81.18.14.42.21.63.32q.57.62,1.29.82l-1.22-.91c-.14-.22-.27-.45-.55-.9,1.33.79,2.31,1.62,3.26,2.5.97.9,1.91,1.84,2.94,2.83.15-.9-.22-1.42-.76-1.88-1.21-1.03-2.41-2.07-3.6-3.12-.28-.24-.5-.55-.75-.83l-.03.03Zm-43.64-11.25c.18.4.46.45.74.52,3.8.85,7.53,1.98,11.26,3.09,3.36,1,6.69,2.12,10.02,3.22,1.14.37,2.27.78,3.38,1.25,2.76,1.16,5.32,2.68,7.87,4.24,2.45,1.5,4.26,3.58,5.65,6.06.4.72.64,1.49.76,2.32.26,1.76.07,3.45-.54,5.12-.14.38-.44.75-.27,1.31,1.59-.55,2.65-1.54,3.04-3.15.54-2.22.2-4.3-1.09-6.21-.7-1.05-1.51-1.99-2.51-2.77-1.9-1.49-3.95-2.74-5.99-4.02-2.74-1.72-5.7-3-8.61-4.39-2.48-1.18-4.99-2.28-7.62-3.08-2.16-.66-4.37-1.16-6.51-1.86-2.44-.79-4.96-1.14-7.47-1.6-.68-.12-1.39-.13-2.12-.02Zm-53.86,14.39c-.64.08-1.01.08-1.36.17-.84.22-1.67.46-2.49.73-2.75.9-5.41,2.03-7.85,3.61-1.89,1.23-3.42,2.8-4.58,4.74-.92,1.54-1.64,3.16-2.12,4.89-.31,1.12-.49,2.26-.42,3.43.05.88.28,1.71.79,2.44.13.19.27.41.57.3-.01-2.11.03-2.35.8-4.5.23-.63.47-1.27.74-1.88,1.56-3.58,3.88-6.53,7.25-8.58.82-.5,1.65-1,2.48-1.49,1.86-1.1,3.73-2.2,5.6-3.31.15-.09.26-.24.6-.56Zm9.06-10.16s-.02-.07-.04-.11c-.81.07-1.63.09-2.43.22-4,.66-7.86,1.8-11.6,3.35-4.16,1.72-7.92,4.15-11.52,6.81-.65.48-1.23,1.08-1.8,1.66-.46.46-.86.98-1.27,1.85.4-.21.55-.27.69-.36,2.3-1.49,4.59-3,6.9-4.47,3.54-2.25,7.23-4.21,11.2-5.6,2.99-1.04,6.02-1.99,9.02-2.99.29-.1.57-.24.86-.37Zm74.3,32.25c-.35.03-.55,0-.71.06-.72.27-1.45.53-2.14.86-3.69,1.78-7.53,3.17-11.37,4.55-3.35,1.2-6.67,2.48-9.87,4.04-.22.11-.4.28-.83.6.59-.06.88-.06,1.15-.12,5.82-1.33,11.48-3.15,16.98-5.49,2.13-.91,4.13-2.06,5.98-3.45.29-.22.64-.42.81-1.04Zm-22.38-28.05c0,.1-.01.19-.02.29.22.06.44.15.66.16,1.17.05,2.28.36,3.37.75,3.45,1.22,6.83,2.63,10.06,4.37,1.95,1.05,3.85,2.19,5.67,3.46.38.26.72.63,1.35.57,0-.19.06-.4-.01-.54-.2-.38-.4-.78-.7-1.09-.6-.63-1.2-1.27-1.89-1.77-.97-.7-2-1.36-3.06-1.9-3.57-1.82-7.25-3.35-11.18-4.24-1.4-.32-2.83-.34-4.25-.06Zm-45.79,36.66c.36.2.46.3.58.32.94.2,1.88.41,2.83.56,2.14.33,4.3.49,6.46.69,4.24.38,8.47.2,12.7-.15.57-.05,1.14-.18,1.7-.31.16-.04.29-.2.56-.39-.36-.1-.58-.23-.79-.22-1.01.07-1.99-.19-2.99-.18-1.35.01-2.7,0-4.05,0-3.66,0-7.32.01-10.98-.25-1.91-.14-3.83-.09-6.02-.09Zm-25.57-5.32c.28.3.45.53.67.7.96.73,2,1.34,3.18,1.66,2.55.69,5.09,1.42,7.66,2.03,1.44.34,2.94.47,4.41.67.19.03.46.13.64-.24-.26-.12-.5-.26-.76-.34-1.32-.43-2.65-.85-3.98-1.28-2.15-.69-4.3-1.37-6.45-2.06-1.05-.34-2.1-.67-3.16-1-.5-.15-1.01-.31-1.53-.4-.18-.03-.39.15-.69.28Zm46.53,3.14c-.42-.55-.89-.41-1.29-.41-2.79-.01-5.57,0-8.36,0-1.49,0-2.98,0-4.47.02-.99.01-1.97.13-2.94.41.7.21,1.4.37,2.1.43,2.1.18,4.21.36,6.32.49,2.21.14,4.42.23,6.61-.17.7-.13,1.42-.19,2.04-.77Zm24.08-1.91c.23,0,.42.03.6,0,.95-.16,1.89-.33,2.83-.52,2.74-.53,5.44-1.2,8.01-2.31.79-.34,1.54-.78,2.28-1.23.32-.19.58-.5.82-.79.07-.09-.02-.31-.05-.54-.28.07-.47.1-.64.17-4.49,1.84-9.07,3.43-13.65,5-.06.02-.1.11-.19.22Zm-25.65-.4c-.13-.14-.23-.35-.38-.39-.45-.14-.92-.27-1.39-.31-1.05-.08-2.11-.08-3.16-.16-2.16-.18-4.32-.12-6.47.07-.14.01-.28.1-.68.24.68.19,1.08.34,1.5.41,2.85.46,5.7.77,8.59.62.67-.04,1.34-.04,1.99-.47Zm-.32-42.04c1.22.31,2.43.53,3.67.54,2.98.04,5.96-.07,8.93.21.48.05.96.03,1.44-.01.22-.02.42-.15.76-.28-.99-.56-1.94-.73-2.88-.76-1.92-.05-3.84-.01-5.77.03-1.58.04-3.17.14-4.75.21-.47.02-.94.03-1.41.05Zm-56.02,21.25l-.21-.16c-.2.13-.41.24-.59.39-1.28,1.16-2.61,2.28-3.8,3.52-.72.75-1.26,1.68-1.84,2.56-.19.29-.05.55.34.61.87-.44,1.57-1.09,2.18-1.84,1.12-1.38,2.22-2.77,3.33-4.16.22-.28.4-.61.6-.91Zm94.62-2.84c-.21-.68-.75-.85-1.23-1-1.44-.45-2.85-1.06-4.42-.85,1.64.8,3.35,1.38,5.1,1.85.16.04.35,0,.56,0Zm-44.22-18.15c-1.11,0-1.98-.07-2.83.02-.9.09-1.79.3-2.67.5-.18.04-.32.27-.63.55,1.72.17,3.14-.39,4.6-.5.48-.04.93-.14,1.53-.57Zm-58.63,19.28c.29-.01.54-.11.34-.44-.12.16-.23.3-.34.44Zm94.2-6.66s.08-.03.11-.04c-.03-.02-.06-.06-.09-.07-.03,0-.07.02-.11.03.03.02.06.05.09.07Z"/>
      <path class="cls-1" d="m133.98,75.75c4.49.49,8.9.46,13.34.38-.32.38-.71.37-1.09.39-3.37.19-6.74.28-10.1,0-.62-.05-1.22-.24-1.82-.39-.1-.03-.17-.19-.33-.38Z"/>
      <path class="cls-1" d="m198.62,66.43c-1.76,1.54-6.84,3.1-10.76,3.42.58-.24.87-.4,1.18-.47,3.09-.7,6.13-1.59,9.05-2.85.16-.07.35-.07.53-.1Z"/>
      <path class="cls-1" d="m67.72,33.68c-.84,2.99-.68,5.92-.78,8.87-.07-.17-.17-.34-.21-.52-.44-2.23-.46-4.47.07-6.69.11-.46.33-.89.54-1.32.07-.14.25-.23.38-.34Z"/>
      <path class="cls-1" d="m107.06,7.43c.14-.11.26-.27.41-.31,1.07-.26,2.13-.54,3.21-.73,2.4-.42,4.8-.92,7.23-1.11.21-.02.42.02.73.03-.33.44-.7.28-1,.35-.33.08-.65.16-.98.21-2.5.4-5.01.8-7.51,1.2-.71.11-1.41.21-2.12.32l.03.03Z"/>
      <path class="cls-1" d="m148.06,3.15c-1.99-.13-3.97-.3-5.96-.37-1.97-.06-3.94-.01-5.86-.01-.06-.11-.09-.16-.09-.16.03-.03.07-.08.12-.08,1-.09,2.01-.25,3.01-.25,2.79,0,5.58.05,8.34.51.16.03.32.13.47.2-.01.05-.03.11-.04.16Z"/>
      <path class="cls-1" d="m80.94,18.08c.22-.24.4-.54.66-.73,2.19-1.57,4.45-3.05,6.91-4.16.2-.09.41-.14.68-.07-.36.23-.72.45-1.08.68-2.16,1.35-4.32,2.71-6.49,4.06-.19.12-.43.17-.65.26,0,0-.03-.03-.03-.03Z"/>
      <path class="cls-1" d="m213.59,41.03c-.08-3.41.09-6.84-1.28-10.09.65.6.92,1.14,1.21,2.42.57,2.55.63,5.1.07,7.67Z"/>
      <path class="cls-1" d="m71.27,50.08c1.54,2.28,3.45,4.15,5.27,6.12-.13.07-.22.14-.25.13-1.86-1.32-3.37-2.98-4.68-4.83-.26-.37-.63-.75-.34-1.42Z"/>
      <path class="cls-1" d="m203.4,56.03c.1-.14.18-.33.32-.42,1.8-1.14,3.49-2.41,4.93-3.99.05-.06.17-.05.3-.08.03.12.13.28.09.36-.15.3-.31.61-.53.85-1.25,1.38-2.74,2.42-4.44,3.16-.21.09-.47.05-.7.08,0,0,.03.03.03.03Z"/>
      <path class="cls-1" d="m178.82,6.79c.61.09,1.24.15,1.84.29,1.88.44,3.66,1.17,5.41,1.96.43.19.83.45,1.55.85-.5,0-.66.05-.79,0-2.57-1.08-5.15-2.14-7.84-2.9-.07-.02-.1-.15-.15-.22l-.03.04Z"/>
      <path class="cls-1" d="m188.43,68.6c.22-.12.43-.26.67-.35,2.19-.8,4.39-1.59,6.59-2.38.07-.03.18.04.33.08-.4.47-.95.61-1.45.82-1.98.81-3.97,1.57-6.13,1.83Z"/>
      <path class="cls-1" d="m93.72,16.09c.11-.14.18-.34.32-.41,1.74-.9,3.55-1.61,5.43-2.17.07-.02.17.05.26.08-.02.08-.01.21-.06.23-1.95.87-3.9,1.73-5.98,2.24,0,0,.03.03.03.03Z"/>
      <path class="cls-1" d="m221.8,40.22c-.37-2.05-.73-4.05-1.1-6.07.3-.03.27.26.35.44.55,1.23.83,2.54,1.07,3.85.08.46.03.95-.01,1.42-.01.14-.22.25-.31.36Z"/>
      <path class="cls-1" d="m68.43,37.18c.34,1.77.36,3.52.31,5.38-.56-1.36-.72-3.5-.31-5.38Z"/>
      <path class="cls-1" d="m205.22,56.5c1.41-1.16,2.73-2.24,4.05-3.32.06-.05.18-.05.27-.07q-.11.55-.55.99c-1.36,1.37-2.54,2.14-3.77,2.4Z"/>
      <path class="cls-1" d="m144.14,75.12c-2.49.36-3.93.35-5.22.03,1.93-.17,3.56-.38,5.22-.03Z"/>
      <path class="cls-1" d="m210.96,27.9c-.16-.07-.38-.11-.46-.23-1.01-1.46-2.05-2.88-3.57-4.28,1.57.69,3.13,2.55,3.99,4.54l.04-.03Z"/>
      <path class="cls-1" d="m144.28,3.67c-2.86.5-5.44.49-6.98.04,2.35-.06,4.4-.11,6.44-.15.18,0,.36.07.54.11Z"/>
      <path class="cls-1" d="m98.1,12.44c-.91.88-2.15,1.2-3.22,1.82-.1.06-.27,0-.57,0,1.21-.93,2.42-1.51,3.79-1.83Z"/>
      <path class="cls-1" d="m198.75,17.22c-1.53-.44-2.87-1.21-4.1-2.2-.05-.04-.04-.15-.06-.23.05-.03.1-.08.12-.07,1.32.75,2.64,1.51,3.95,2.28.05.03.04.16.06.25,0,0,.02-.03.02-.03Z"/>
      <path class="cls-1" d="m179.5,8.51c1.3-.11,2.5.26,3.8.71-.79.16-.8.17-1.92-.13-.63-.17-1.25-.38-1.88-.58Z"/>
      <path class="cls-1" d="m73.94,51.7c.63.66,1.26,1.31,1.89,1.98.05.05.05.15.08.24-.99-.4-1.46-.87-1.96-2.21Z"/>
      <path class="cls-1" d="m203.48,20.35c1.03.12,1.66.68,2.34,1.38-.26.03-.36.08-.41.05-.65-.47-1.28-.95-1.93-1.43Z"/>
      <path class="cls-1" d="m76.9,21.45c-.26.25-.5.52-.77.75-.31.26-.64.49-1.07.63.06-.1.09-.22.17-.29.48-.44.96-.87,1.45-1.31.07.07.15.15.22.22Z"/>
      <path class="cls-1" d="m219.27,36.07c.7.52.81,1.26.77,2.06-.39-.64-.69-1.32-.74-2.08l-.03.02Z"/>
      <path class="cls-1" d="m77.08,21.06c.43-.63.83-.88,1.36-.99-.26.24-.52.49-.79.73-.09.08-.22.1-.57.26Z"/>
      <path class="cls-1" d="m70.15,27.78c.47-.43.77-.71,1.24-1.14q-.37,1.03-1.24,1.14Z"/>
      <path class="cls-1" d="m80.97,18.11c-.16.41-.51.58-1.07.79.34-.48.61-.75,1.04-.82,0,0,.03.03.03.03Z"/>
      <path class="cls-1" d="m219.3,36.04c-.38-.14-.3-.49-.42-.83.45.21.5.5.39.85,0,0,.03-.02.03-.02Z"/>
      <path class="cls-1" d="m210.92,27.92c.09.09.18.18.27.28.02.03.01.09.02.13-.08-.02-.21-.02-.22-.06-.04-.12-.03-.25-.04-.38,0,0-.03.03-.03.03Z"/>
      <path class="cls-1" d="m71.9,26.34c-.05-.01-.09-.02-.12-.03.06-.11.11-.21.18-.31,0-.01.08.01.12.02-.06.11-.12.22-.18.33Z"/>
      <path class="cls-1" d="m105.95,7.5c-.05.18.06.51-.34.37.11-.12.23-.24.35-.35,0,0-.01-.02-.01-.02Z"/>
      <path class="cls-1" d="m107.03,7.4c-.32.38-.69.29-1.08.11,0,0,.01.02,0,0,.36-.03.73-.06,1.1-.09,0,0-.02-.03-.02-.03Z"/>
      <path class="cls-1" d="m178.85,6.75c-.14,0-.29,0-.1,0-.17-.09-.05-.03.07.04,0,0,.03-.04.03-.04Z"/>
      <path class="cls-1" d="m203.37,56c-.08.07-.16.15-.23.22-.03-.03-.06-.07-.09-.1.12-.03.23-.06.35-.09,0,0-.03-.03-.03-.03Z"/>
      <path class="cls-1" d="m79.12,19.37s.07-.03.11-.04c0,.05.02.09.03.14-.04,0-.08,0-.11-.01-.02,0-.02-.06-.02-.09Z"/>
      <path class="cls-1" d="m199.42,17.43s.08.05.1.08c.04.06.06.13.09.2-.04,0-.11.02-.12,0-.04-.06-.07-.13-.08-.2,0-.04.03-.08.05-.12,0,0-.03.04-.03.04Z"/>
      <path class="cls-1" d="m199.45,17.4c-.28.15-.54.17-.7-.17,0,0-.02.03-.02.03.28-.12.48.02.68.18,0,0,.04-.04.04-.04Z"/>
      <path class="cls-1" d="m93.69,16.06l-.22.23s-.07-.1-.11-.15c.12-.02.24-.04.36-.05,0,0-.03-.03-.03-.03Z"/>
      <path class="cls-1" d="m40.51,55.12c.82-.81,1.67-.74,2.55-.96-.25-.22-.41-.36-.65-.57.14-.11.25-.29.4-.31,1.38-.25,2.76-.33,4.12.11.04.01.06.07.1.1q-.55.3-1.51.36c.92.01,1.77.24,2.6.72-.14.12-.2.22-.26.22-1.87.05-3.75-.03-5.61.31-.46.08-.95.01-1.72.01Z"/>
      <path class="cls-1" d="m54.74,41.52c-.62,0-1.24,0-1.87,0-2.65-.03-5.27.29-7.87.77-.38.07-.76.09-1.14.12-.12,0-.24-.05-.39-.09,1.86-1.23,7.99-1.73,11.27-.79Z"/>
      <path class="cls-1" d="m23.58,52.39c2.3-3.47,7.02-6.99,9.94-7.53-.49.3-.79.53-1.12.67-1.93.83-3.53,2.15-5.11,3.48-1.07.9-2.06,1.88-3.09,2.83-.2.19-.41.36-.62.54Z"/>
      <path class="cls-1" d="m25.07,95.16c-1.47-.76-3.64-3.5-4.8-5.78q-.35-.7-.32-1.56c.49.45.7.98,1,1.45.34.53.64,1.07.98,1.6.31.49.63.96.96,1.44.36.51.73,1.01,1.11,1.51.35.46.71.9,1.07,1.35Z"/>
      <path class="cls-1" d="m17.53,63.4c-.16,1.04-.28,2.09-.47,3.12-.36,1.94-.76,3.88-.66,5.85-.34.11-.41-.08-.41-.27.06-2.7.22-5.39.99-8,.08-.26.21-.51.31-.77.08.02.16.04.24.07Z"/>
      <path class="cls-1" d="m46.04,97.3c2.91.66,5.87.93,8.85.97.16,0,.33.04.5.23-.71.08-1.41.22-2.12.24-2.32.06-4.59-.25-6.79-1.01-.23-.08-.47-.13-.41-.46l-.03.03Z"/>
      <path class="cls-1" d="m21.34,55.13c-.07.22-.1.47-.21.66-1,1.75-2.04,3.48-2.75,5.37-.06.17-.21.31-.37.55-.05-.21-.13-.35-.1-.45.61-2.04,1.54-3.92,2.82-5.63.16-.21.28-.52.64-.48l-.03-.03Z"/>
      <path class="cls-1" d="m17.59,80.73c-.6-.07-.67-.44-.77-.75-.37-1.19-.57-2.42-.63-3.67-.03-.52,0-1.05.06-1.59.5,1.97.9,3.96,1.34,6Z"/>
      <path class="cls-1" d="m56.95,48.42c-3.12.2-4.88.07-5.88-.42,1.79-.32,3.5-.15,5.21.02.16.02.3.18.67.41Z"/>
      <path class="cls-1" d="m40.17,106.93c-.19-.01-.4.03-.56-.05-1.62-.74-3.13-1.65-4.58-2.76.29-.23.49-.04.66.05,1.38.78,2.76,1.56,4.13,2.36.14.08.22.28.33.42l.03-.03Z"/>
      <path class="cls-1" d="m26.3,71.07c-.06-2.42.47-4.41,1.39-5.31-.3,1.9-1.07,3.54-1.39,5.31Z"/>
      <path class="cls-1" d="m28.21,64.3c.27-1.1.84-2.03,1.56-2.87.23-.27.56-.47.95-.79-.24.94-1.14,2.27-2.51,3.66Z"/>
      <path class="cls-1" d="m35.66,92.42c-.28-.25-.55-.5-.83-.75-.84-.72-1.69-1.42-2.51-2.15-.27-.24-.45-.58-.68-.9.17-.06.3-.14.33-.11,1.28,1.15,2.55,2.31,3.81,3.46-.04.18-.08.32-.11.46h0Z"/>
      <path class="cls-1" d="m56.7,111.1c-.16.04-.33.15-.48.12-1.02-.16-2.08-.13-3.32-.72,1.48-.09,2.64,0,3.8.6Z"/>
      <path class="cls-1" d="m51.44,49.32c1.28-.61,2.33-.69,3.54-.33-.04.08-.06.21-.11.22-1.09.17-2.18.13-3.42.11Z"/>
      <path class="cls-1" d="m22.89,90.51c.87,1.03,1.69,2,2.64,3.12-.57-.03-.78-.29-.97-.52-.58-.69-1.15-1.39-1.7-2.11-.06-.08.02-.26.04-.49Z"/>
      <path class="cls-1" d="m51.05,110.39c-1.17-.22-2.33-.43-3.49-.67-.17-.04-.33-.18-.72-.42,1.63.16,2.98.29,4.22,1.08Z"/>
      <path class="cls-1" d="m57.67,98.13c.49-.12.93-.53,1.56-.18-.54.45-1.07.28-1.56.18Z"/>
      <path class="cls-1" d="m43.24,107.94c.6.26,1.19.52,1.79.77.26.11.09.32.12.48h0c-.53-.25-1.05-.5-1.58-.73-.24-.1-.37-.24-.33-.51h0Z"/>
      <path class="cls-1" d="m45.15,109.19c.2-.08.39-.16.59-.23.02.06.04.11.05.17-.21.02-.43.04-.64.06,0,0,0,0,0,0Z"/>
      <path class="cls-1" d="m43.24,107.95c-.2.04-.41.07-.61.11v-.11c.2,0,.4,0,.61,0,0,0,0,0,0,0Z"/>
      <path class="cls-1" d="m21.37,55.16c.03-.11.05-.22.08-.32.04.02.07.05.11.07-.07.08-.15.15-.22.23,0,0,.03.03.03.03Z"/>
      <path class="cls-1" d="m40.14,106.96s.1-.05.14-.04c.09.02.17.06.25.11.01,0,0,.06,0,.09-.12-.02-.24-.03-.35-.06,0,0,0-.09,0-.14,0,0-.03.03-.03.03Z"/>
      <path class="cls-1" d="m46.07,97.26c-.08.04-.15.1-.23.1-.05,0-.1-.08-.15-.13.04-.01.08-.04.11-.03.08.02.16.06.24.09,0,0,.03-.04.03-.04Z"/>
      <path class="cls-1" d="m35.66,92.43c.06-.07.12-.17.19-.2.06-.03.15.03.23.05-.05.04-.09.1-.15.11-.09.02-.18.02-.27.03,0,0,0,.01,0,.01Z"/>
      <path class="cls-1" d="m49.9,80.52s-8.75,5.88-8.85,5.94c.17-.57.54-.87.89-1.16,2.17-1.82,4.38-3.59,7-4.75.29-.13.61-.17.92-.25.01.07.03.14.04.21Z"/>
      <path class="cls-1" d="m43.79,86.35c.84-1.2,2.44-2.47,3.6-2.93-1.15,1.26-2.38,2.08-3.6,2.93Z"/>
      <path class="cls-1" d="m39.7,80.29c-.63.51-1.25,1.02-1.89,1.51-.14.11-.32.15-.54.25.3-.83.74-1.19,2.43-1.76Z"/>
      <path class="cls-1" d="m44.65,87.7c.5-1.02,1.23-1.79,2.23-2.55,0,.25.04.38,0,.42-.74.72-1.48,1.42-2.23,2.13Z"/>
      <path class="cls-1" d="m216.57,129.12c-1.74.15-6.64-.93-8.1-1.74.06-.26.28-.14.42-.16.14-.01.29,0,.43.03,1.55.29,3.1.55,4.64.88.87.19,1.73.45,2.61.99Z"/>
      <path class="cls-1" d="m199.91,137.5c-.73-1.1-.92-2.31-1.03-3.53-.03-.37-.05-.77.27-1.07.35.52.34.52.43,1.34.06.57.17,1.13.23,1.7.05.52.07,1.04.1,1.56Z"/>
      <path class="cls-1" d="m201.63,139.61c-.84-.89-1.22-2.65-1.04-4.43.09-.01.24-.05.25-.03.51,1.4.56,2.88.8,4.45Z"/>
      <path class="cls-1" d="m203.43,140.85c-.5-.38-.61-.9-.72-1.39-.2-.91-.6-1.79-.4-2.78.14.05.28.05.31.11.39.77.79,2.72.81,4.06Z"/>
      <path class="cls-1" d="m225.38,133.79c1.56,1.11,1.99,2.17,1.6,3.86-.47-.6-.45-1.3-.73-1.88-.27-.58-.79-1.06-.87-1.98Z"/>
      <path class="cls-1" d="m214.91,134.7c-.41.47-.99.53-1.54.57-.68.05-1.33.18-1.94.45-.5.23-1.01.26-1.69.05,1.73-.85,3.46-.97,5.2-1.04l-.03-.04Z"/>
      <path class="cls-1" d="m207.95,140.34c.8.95,1.33,1.95,1.56,3.23-.72-.54-.91-.78-1.41-1.95-.15-.36-.52-.73-.15-1.28Z"/>
      <path class="cls-1" d="m217.11,143.71c-.22-.15-.48-.27-.64-.47-.41-.52-.78-1.07-1.13-1.62-.05-.08.03-.26.07-.53.86.72,1.55,1.43,1.93,2.37-.07.08-.15.16-.22.25Z"/>
      <path class="cls-1" d="m204.79,138.65c.07.23.15.46.2.69.21.83.41,1.65.64,2.59-.61-.14-.71-.57-.84-.95-.27-.75-.49-1.52,0-2.33Z"/>
      <path class="cls-1" d="m225.97,139.41c.19-1.27-.46-2.14-.59-3.28.82.49,1.02,1.15,1.14,1.78.08.43.14.95-.55,1.51Z"/>
      <path class="cls-1" d="m212.86,143.91c-1.06-.42-1.52-1.23-1.61-2.53.77.86,1.21,1.68,1.61,2.53Z"/>
      <path class="cls-1" d="m206.35,139.78c.7.93.83,1.9,1.12,2.85-.37.13-.5-.1-.57-.28-.33-.77-.76-1.52-.54-2.58Z"/>
      <path class="cls-1" d="m215.07,143.67c-1.13-.68-1.31-.9-1.5-1.84,1.13.71,1.54,1.21,1.5,1.84Z"/>
      <path class="cls-1" d="m218.36,141.45c.79.62,1.03,1.3,1.46,1.79-.13.34-.32.22-.45.12-.5-.43-.94-.89-1.02-1.91Z"/>
      <path class="cls-1" d="m205.25,127.06c.05-.42.34-.36.81-.28-.38.12-.61.18-.83.25l.02.03Z"/>
      <path class="cls-1" d="m205.22,127.03c-.25.04-.5.07-.75.11.25-.29.51-.28.77-.08,0,0-.02-.02-.02-.02Z"/>
      <path class="cls-1" d="m214.94,134.73c.13-.26.3-.31.62-.03-.29,0-.47,0-.65,0,0,0,.03.04.03.04Z"/>
      <path class="cls-1" d="m233.23,104.87c1.09-.3,2.18-.28,3.26-.08.83.16,1.69.27,2.37.9-.89.24-3.9-.15-5.63-.82Z"/>
      <path class="cls-1" d="m219.67,117.21c.12-.09.18-.14.19-.14,1.48.81,2.43,2.22,3.66,3.38-.18-.04-.39-.03-.54-.12-1.07-.64-2.02-1.43-2.86-2.35-.2-.22-.32-.52-.47-.78Z"/>
      <path class="cls-1" d="m216.5,115.71c.89.39,2.23,1.65,3.29,3.1-.63-.1-1.03-.44-1.39-.78-.66-.61-1.28-1.27-1.89-1.93-.06-.07,0-.25,0-.4Z"/>
      <path class="cls-1" d="m231.57,119.49c.11-.04.21-.12.29-.1.41.11.84.2,1.22.38.86.39,1.81.57,2.86,1.23-1.23,0-2.11-.26-2.96-.62-.51-.22-1.12-.3-1.41-.89Z"/>
      <path class="cls-1" d="m232.66,121.38c-1.46-.07-2.46-.71-3.51-1.23-.19-.09-.43-.22-.3-.61.4.04.78.17,1.16.35.84.42,1.7.8,2.66,1.49Z"/>
      <path class="cls-1" d="m229.92,121.62c-1.58-.19-3.25-1.17-4.11-2.31.08-.03.2-.12.24-.09,1.24.76,2.47,1.53,3.87,2.4Z"/>
      <path class="cls-1" d="m226.33,120.58c-1.42-.18-2.56-.79-3.59-1.94.31-.02.5-.09.61-.02,1,.64,1.99,1.31,2.98,1.96Z"/>
      <path class="cls-1" d="m237.78,120.28c-1.44-.09-2.48-.42-3.56-1.01,1.02-.31,1.9-.07,3.56,1.01Z"/>
      <path class="cls-1" d="m240.03,119.29c-1.46.15-2.55-.24-3.87-.59.57-.39.98-.2,1.35-.16.79.09,1.59.21,2.53.75Z"/>
      <path class="cls-1" d="m238.71,109.94c-.98.54-1.56.6-3.24.35.02-.08.03-.23.07-.24.86-.24,2.13-.28,3.18-.11Z"/>
      <path class="cls-1" d="m229.97,105.07c-1.67.24-3.03.44-4.39.64,1.02-.72,2.22-.92,4.39-.64Z"/>
      <path class="cls-1" d="m238.89,117.78c1.03-.13,2.04-.12,2.99.32-1.06.42-2.04.2-2.99-.32Z"/>
      <path class="cls-1" d="m230.1,111.08h1.83c-.62.2-1.25.39-1.83,0Z"/>
      <path class="cls-1" d="m221.79,107.13c.1.45-.2.53-.71.63.18-.2.27-.32.37-.4.11-.08.24-.13.37-.19l-.03-.03Z"/>
      <path class="cls-1" d="m221.83,107.16c.25-.23.52-.19.81-.07l-.03-.02c-.27.02-.54.04-.81.06,0,0,.03.03.03.03Z"/>
      <path class="cls-1" d="m222.63,107.09c-.04-.08-.08-.16-.1-.25,0-.02.03-.07.06-.09.03-.02.08-.01.12-.01-.02.07-.04.13-.06.2-.02.04-.04.08-.05.13,0,0,.03.03.03.03Z"/>
      <path class="cls-1" d="m239.49,126.69c-.88,1.05-4.21,3.97-5.3,4.64,0-.46.2-.77.44-1.05,1.23-1.43,2.62-2.68,4.29-3.58.13-.07.34,0,.57,0Z"/>
      <path class="cls-1" d="m249.86,132.89c-.07,1.56-1.83,4.56-5.23,9.01-.03-.65.21-1.11.53-1.5,1.73-2.1,2.96-4.5,4.26-6.86.11-.21.27-.39.44-.65Z"/>
      <path class="cls-1" d="m233.39,151.46c-.91-.51-.85-1.36-1.01-2.07-.2-.92-.11-1.26.33-1.96.39,1.35.48,2.64.68,4.03Z"/>
      <path class="cls-1" d="m241.48,134.72c.16.44-.11.76-.27,1.07-.52,1-1.13,1.94-2.05,2.92.56-1.68,1.54-3.34,2.33-3.99Z"/>
      <path class="cls-1" d="m231.62,151.37c-.76-.57-.49-1.41-.54-2.12-.05-.68-.05-1.41.66-2.21-.05.95-.09,1.61-.11,2.27-.02.67,0,1.34,0,2.05Z"/>
      <path class="cls-1" d="m249.95,130.26c.11-1.2-.15-2.15-.48-3.08-.02-.07.03-.19.08-.25.05-.05.2-.09.24-.06.48.36.74.86.79,1.45.05.64.08,1.29-.63,1.94Z"/>
      <path class="cls-1" d="m234.53,147.81c.22,1.15.44,2.31.68,3.56-.54-.12-.69-.49-.76-.81-.18-.9-.64-1.79-.25-2.72.11,0,.22-.02.33-.03Z"/>
      <path class="cls-1" d="m235.6,148.23c.79.99,1.06,2.13,1.06,3.59-.25-.34-.44-.49-.5-.68-.29-.94-.7-1.86-.56-2.91Z"/>
      <path class="cls-1" d="m237.66,147.56c.74,2.02.79,2.24.67,3.22-.59-.43-.71-1.05-.79-1.63-.07-.47-.43-.98.12-1.59Z"/>
      <path class="cls-1" d="m239.66,149.59c-.25-.19-.44-.26-.51-.4-.4-.72-.46-1.16-.34-2.3.17.16.36.24.39.37.19.71.56,1.39.46,2.32Z"/>
      <path class="cls-1" d="m242.82,146.66c-.25-.73.1-1.69,1.12-3.18-.28,1.21-.5,2.15-1.12,3.18Z"/>
      <path class="cls-1" d="m230.83,134.89c.72-.67,1.35-1.25,2.11-1.96-.36,1.33-1.02,1.94-2.11,1.96Z"/>
      <path class="cls-1" d="m226.64,145.78c.59.66.36,1.48.67,2.14-.75-.53-.84-.86-.67-2.14Z"/>
      <path class="cls-1" d="m227.52,145.36c.44.66.42.66.46,1.56q-.6-.5-.46-1.56Z"/>
      <path class="cls-1" d="m114.76,164.89c-2.75-.26-5.68-2-6.65-3.74.15,0,.31-.05.42,0,.47.23.94.47,1.39.74,1.27.76,2.53,1.53,3.8,2.3.36.22.7.46,1.05.69Z"/>
      <path class="cls-1" d="m111.57,172.12c-.09-.22-.19-.45-.34-.81.78.21,1.47.37,2.13.61.13.05.16.38.26.67.58.15,1.33,0,1.97.53-.33.32-.71.23-1.07.18-1.35-.18-2.74-.25-4.12-1.15.54-.03.87-.04,1.19-.06.19.19.38.36.7-.01-.3.02-.52.03-.73.05Z"/>
      <path class="cls-1" d="m116.13,155.41c.52.05,1.04.13,1.56.16,1.8.1,3.48.62,5.04,1.51.16.09.27.25.65.6-.6-.18-.91-.25-1.2-.37-1.38-.54-2.75-1.12-4.26-1.23-.47-.03-.94-.17-1.4-.31-.15-.05-.25-.26-.37-.39l-.02.03Z"/>
      <path class="cls-1" d="m124.58,172.17c-.4.87-1.23.96-1.98,1.16-1.46.4-2.19.39-3.17.06,1.72-.41,3.43-.81,5.14-1.22Z"/>
      <path class="cls-1" d="m106.71,157.1c-.54.28-.94.48-1.49.76.15-.71.62-.9.98-1.16.88-.62,1.01-.67,1.93-.78.11.31-.16.39-.33.51-.28.22.11.43,0,.63-.26.43-.67.63-1.22.78.05-.26.08-.44.13-.75Z"/>
      <path class="cls-1" d="m103.53,164.49c.21.03.28.02.29.05.1.15.23.31.29.48.41,1.22.81,2.44,1.13,3.7-.64-.46-.92-1.16-1.2-1.83-.31-.74-.68-1.48-.51-2.39Z"/>
      <path class="cls-1" d="m107.18,170.12c-.98-1.07-1.53-2.21-1.83-3.49-.02-.09.11-.22.17-.35.76.83,1.56,2.64,1.66,3.84Z"/>
      <path class="cls-1" d="m116.16,155.39c-.27.09-.54.25-.8.25-.95,0-1.9-.06-2.86-.1.03-.37.29-.39.51-.43,1.07-.2,2.08.12,3.12.32,0,0,.03-.03.03-.03Z"/>
      <path class="cls-1" d="m107.46,168.26c.7.71,1.08,1.61,1.55,2.46-1.09-.6-1.49-1.23-1.55-2.46Z"/>
      <path class="cls-1" d="m102.31,164.31c-.56-.72-.53-1.38-.47-2.03.01-.15.18-.27.38-.56.34.93.21,1.67.09,2.59Z"/>
      <path class="cls-1" d="m118.92,162.9c.6-.07,1.21-.14,1.81-.21.01,0,.03.08.07.17-.64.58-1.4.56-2.23.47.16-.18.28-.31.4-.44,0,0-.04,0-.04,0Z"/>
      <path class="cls-1" d="m128.68,168.93c.41-1.07.7-1.8.99-2.55.29.99.16,1.37-.99,2.55Z"/>
      <path class="cls-1" d="m106.97,160.52c-.81-.16-1.32-.26-1.83-.37-.1-.34.19-.42.38-.41.48.03.92.2,1.45.78Z"/>
      <path class="cls-1" d="m129.64,164.77c-.65-.59-.67-1.1-.84-1.56.57.29.61.8.84,1.56Z"/>
      <path class="cls-1" d="m111.2,155.33q-1.28.45-1.62,0h1.62Z"/>
      <path class="cls-1" d="m118.96,162.9c-.28-.26-.31-.49-.08-.54.3-.07.62-.1.99.01-.31.18-.63.35-.95.53,0,0,.04,0,.04,0Z"/>
      <path class="cls-1" d="m231.84,161.45c0-1.04.04-1.84-.01-2.65-.05-.79-.2-1.58-.33-2.58.33.27.54.38.66.55.4.62.51,1.33.48,2.06-.04,1.07-.2,1.69-.79,2.61Z"/>
      <path class="cls-1" d="m228.44,164.56c.12-.54.27-1.03.34-1.53.07-.47.09-.95.11-1.43.02-.5.02-1.01.03-1.53.54.05.54.45.62.74.29,1.02.03,1.99-.29,2.95-.11.34-.21.76-.82.8Z"/>
      <path class="cls-1" d="m230.25,158.36c.83.73,1.02,1.6.83,2.52-.15.71-.06,1.54-.94,2.08-.11-.6.21-1.05.2-1.53-.01-.52.08-1.05.06-1.57-.01-.5-.1-1-.15-1.51Z"/>
      <path class="cls-1" d="m214.88,170.29c-.17.37-.42.34-.63.24-.5-.23-.84-.63-1.1-1.1-.38-.68-.61-1.41-.67-2.18,0-.11.1-.24.19-.45.14.13.25.2.3.3.19.44.37.89.53,1.33.28.76.6,1.49,1.38,1.84Z"/>
      <path class="cls-1" d="m214.4,154.43c0-.09-.05-.21,0-.27.93-1.51,2.18-2.7,3.68-3.7.04.16.11.3.08.33-1.21,1.21-2.42,2.41-3.64,3.6-.02.02-.09,0-.14,0l.03.03Z"/>
      <path class="cls-1" d="m211.13,165.57c-.07-1.48.66-2.31,2.58-3.18.17.42-.28.41-.43.6-.18.22-.42.39-.62.59-.21.2-.41.39-.6.61-.18.22-.35.45-.51.69-.15.23-.28.47-.42.7Z"/>
      <path class="cls-1" d="m232.79,155.67c1.15,1.05,1.32,2.3.54,3.3-.19-1.15-.39-2.22-.54-3.3Z"/>
      <path class="cls-1" d="m214.62,167.19c.68,1.16,1.18,2.01,1.68,2.86.07.12.07.26.11.39-.19.26-.36.1-.47-.02-.66-.71-1.19-1.51-1.41-2.47-.03-.12.03-.26.11-.77Z"/>
      <path class="cls-1" d="m218.44,169.69c-.43.17-.69-.05-.89-.33-.51-.7-.95-1.42-.78-2.49.2.17.37.24.44.37.42.8.81,1.61,1.22,2.44Z"/>
      <path class="cls-1" d="m215.66,160.96c.86-.77,1.92-1.09,3.03-1.37.07.45-.27.5-.48.62-.77.47-1.61.74-2.55.75Z"/>
      <path class="cls-1" d="m227.77,161.84c.39,1.24.13,2.3-.74,3.29.27-1.18.5-2.23.74-3.29Z"/>
      <path class="cls-1" d="m220.55,169.04c-.64.19-.82-.14-.99-.4-.32-.51-.7-1.01-.57-1.69.15.04.28.03.31.09.41.64.8,1.29,1.25,2.01Z"/>
      <path class="cls-1" d="m216.51,154.53c.57-.99,1.23-1.9,2.18-2.83,0,.31.05.46,0,.54-.59.88-1.26,1.7-2.17,2.29Z"/>
      <path class="cls-1" d="m223.01,165.6c.46.5.61,1.15.93,1.75-.66-.02-.85-.16-1.13-.8-.17-.4-.14-.58.2-.95Z"/>
      <path class="cls-1" d="m220.88,166.33c.63.48,1.08,1.03,1,2-.8-.55-1.11-1.17-1-2Z"/>
      <path class="cls-1" d="m221.42,148.14c-.27.66-.79.8-1.32,1.07q.35-.6,1.32-1.07Z"/>
      <path class="cls-1" d="m214.36,154.4c-.03.11-.06.23-.1.34,0,0-.1,0-.1-.02-.05-.19-.06-.37.24-.28,0,0-.03-.03-.03-.03Z"/>
      <path class="cls-1" d="m166.35,175.7c.82-.12,1.41.06,4.1,1.25-1.12.31-2.04-.03-2.94-.34-.45-.15-1.03-.27-1.16-.91Z"/>
      <path class="cls-1" d="m158.19,165.78c.74-1.41,2.25-2.49,3.85-2.87-1.16,1.13-2.72,2.31-3.85,2.87Z"/>
      <path class="cls-1" d="m164.85,161.25c.09-.54.55-.44.89-.51,1.54-.36,2.24-.31,3.59.28-.9.02-1.64.05-2.37.06-.71,0-1.38.43-2.11.18Z"/>
      <path class="cls-1" d="m177.03,175.57c-1.18.31-2.31-.1-3.45-.39-.25-.06-.54-.18-.59-.62.51.06.98.09,1.43.18.88.17,1.76.38,2.63.58.02,0,.05.05.05.08,0,.05-.03.09-.07.18Z"/>
      <path class="cls-1" d="m180.51,165.1c-1.5-.43-2.81-.75-3.94-1.8,1.66.27,2.82.79,3.94,1.8Z"/>
      <path class="cls-1" d="m174.3,176.29c-1.5.27-2.73-.03-3.64-.8.05-.07.11-.19.16-.19,1.16.16,2.26.55,3.49.99Z"/>
      <path class="cls-1" d="m160.28,173.21c-.51.07-.77-.32-1.08-.59-.67-.6-1.28-1.25-1.48-2.33.21.17.34.23.39.33.38.73.96,1.3,1.53,1.87.23.23.41.5.62.75l.03-.03Z"/>
      <path class="cls-1" d="m160.25,173.23c.94.43,1.89.86,2.83,1.3.06.03.06.17.09.25-.03.03-.07.09-.1.09-.71.01-1.25-.4-1.81-.73-.39-.24-.89-.38-.97-.94,0,0-.03.03-.03.03Z"/>
      <path class="cls-1" d="m168.32,162.19c-.69.09-1.38.19-2.07.28-.19.02-.38.02-.56,0-.07,0-.14-.09-.27-.17.93-.65,1.93-.26,2.9-.11Z"/>
      <path class="cls-1" d="m175.68,174.06c.23,0,.46,0,.69,0,.86.02,1.72.04,2.74.06-1.23.47-2.15.49-3.43-.06Z"/>
      <path class="cls-1" d="m175.59,162.78c-.32-.05-.65-.06-.97-.15-.45-.12-.88-.29-1.29-.53.82,0,1.6.1,2.22.71l.04-.04Z"/>
      <path class="cls-1" d="m175.55,162.82c.09.04.19.09.28.13-.04,0-.09.04-.1.03-.05-.06-.09-.13-.14-.2,0,0-.04.04-.04.04Z"/>
      <path class="cls-1" d="m187.42,159.56c.12-1.36.83-2.22,1.4-3.13.61-.97,1.37-1.81,2.42-2.3.1.07.16.1.17.13.01.03-.03.09-.05.12-1.27,1.67-2.53,3.33-3.94,5.17Z"/>
      <path class="cls-1" d="m192.69,152.8c1.1-1.5,2.19-3.05,4.05-3.69.26-.09.53-.14.87-.04-.37.24-.74.49-1.12.71-.88.5-1.68,1.08-2.38,1.83-.42.45-.94.8-1.42,1.19Z"/>
      <path class="cls-1" d="m197.54,166.93c-1.05.58-1.93.6-3.68.18-.44-.1-.95-.15-1.15-.81,1.59-.02,3.02.58,4.83.62Z"/>
      <path class="cls-1" d="m193.89,168.5c-1.32.04-2.54-.33-3.72-.8-.38-.15-.8-.32-.89-.82.09-.04.19-.12.25-.1,1.43.5,2.86,1.01,4.28,1.52.03.01.03.09.07.2Z"/>
      <path class="cls-1" d="m200.23,165.74c-1.53.62-3.37.53-4.73-.17,0-.29.22-.25.4-.24,1.24.09,2.48.19,3.72.29.17.01.34.07.61.12Z"/>
      <path class="cls-1" d="m201.94,163.99c-1.27.62-2.51,1.05-3.89.45.08-.14.14-.33.2-.33,1.23-.05,2.46-.08,3.69-.11Z"/>
      <path class="cls-1" d="m202.51,159.78c.96-.75,2.06-1.14,3.29-1.6-.07.5-.35.69-.62.8-.86.36-1.6,1.09-2.67.79Z"/>
      <path class="cls-1" d="m204.03,161.94c-1.32.98-2.96,1.32-4.59,1.07.66-.58,1.46-.41,2.17-.58.69-.16,1.38-.28,2.42-.49Z"/>
      <path class="cls-1" d="m197.94,153.24c-1.13.87-2.09,1.26-3.5,1.09,1.15-.64,2.16-.87,3.5-1.09Z"/>
      <path class="cls-1" d="m201.74,160.88c1.06-.31,2.12-.61,3.38-.97-.34.63-.8.72-1.21.85-.69.23-1.39.51-2.14.4,0-.1-.02-.19-.03-.29Z"/>
      <path class="cls-1" d="m206.14,156.69c-.43.99-1.17,1.52-2.47,1.5.8-.77,1.64-1.11,2.47-1.5Z"/>
      <path class="cls-1" d="m196.3,152.83c.52-.29,1.04-.59,1.56-.87.06-.03.16-.01.24-.02-.6.82-.65.85-1.8.89Z"/>
      <path class="cls-1" d="m187.38,162.49s-.04.06-.07.09c0-.07.02-.13.02-.2.01.04.03.07.04.11Z"/>
      <path class="cls-1" d="m178.52,159.56c-.55.07-.9.74-1.63.55.18-.5.62-.69.95-.97.4-.33.83-.64,1.26-.94.39-.28.77-.56,1.17-.82.38-.25.73-.58,1.4-.64-.43.58-.92.85-1.31,1.22-.26.25-.68.37-.73.82l.05-.05c-.46-.02-.7.31-.95.61-.07.07-.14.15-.21.22Z"/>
      <path class="cls-1" d="m196.02,145.07c1.62-.79,3.27-.73,5.09-1.05-.32.28-.43.46-.58.5-1.4.3-2.82.58-4.23.86-.04,0-.11-.12-.28-.31Z"/>
      <path class="cls-1" d="m196.44,143.9c.71-.59,1.54-.84,2.48-.87-.6.74-1.2.97-2.48.87Z"/>
      <path class="cls-1" d="m178.52,159.56c.07-.07.14-.15.21-.22.47.03.75-.23.95-.61l-.05.05c.2-.01.39-.03.59-.04l.06.07c-1.01,1.11-1.08,1.16-2.05,1.39.1-.23.2-.43.29-.63Z"/>
      <path class="cls-1" d="m180.22,158.73c.08-.08.16-.16.25-.22.01,0,.09.08.14.13-.11.05-.22.11-.33.16,0,0-.06-.07-.06-.07Z"/>
      <path class="cls-1" d="m87.55,156.59c.4-.74.93-.9,1.49-1.01,1.71-.35,3.34-.1,4.9.65,1.03.5,2.03,1.05,3.05,1.58.06.35-.23.36-.43.42-.54.16-1.05,0-1.54-.21-.44-.19-.87-.41-1.28-.65-1.75-1.01-3.6-1.23-5.55-.79-.13.03-.27,0-.64,0Z"/>
      <path class="cls-1" d="m88.07,163.82c-.17.04-.22.07-.25.06-.92-.61-1.34-1.55-1.62-2.56-.04-.14.07-.4.18-.47.1-.06.4.04.46.15.49.9.84,1.86,1.22,2.82Z"/>
      <path class="cls-1" d="m95.91,154.32c1.6-.15,2.79.54,4.01,1.8-.41-.09-.57-.09-.7-.16-.91-.43-1.81-.88-2.71-1.32-.2-.1-.4-.22-.6-.33Z"/>
      <path class="cls-1" d="m88.6,162.57c.69.58,1.06,1.14,1.77,2.69-.77-.31-1-.52-1.54-1.5-.19-.35-.52-.71-.23-1.18Z"/>
      <path class="cls-1" d="m92.12,164.1c1,.44,1.66,1.27,2.47,2.15-1.19-.28-1.76-.76-2.47-2.15Z"/>
      <path class="cls-1" d="m92.38,165.74c-1.37-.76-1.72-1.2-1.79-2.21.78.65,1.25,1.46,1.79,2.21Z"/>
      <path class="cls-1" d="m96.08,164.67c.78.01,1.1.15,2.38.95-.93.16-1.61-.11-2.38-.95Z"/>
      <path class="cls-1" d="m95.97,166.03c-.98-.11-1.54-.83-2.34-1.48.87-.04,1.36.28,2.41,1.41l-.06.07Z"/>
      <path class="cls-1" d="m96.04,165.96c.1.05.21.11.31.16-.03.03-.08.09-.1.08-.1-.05-.18-.11-.28-.17,0,0,.06-.07.06-.07Z"/>
      <path class="cls-1" d="m129.61,186.84c-.13-.7-.31-1.4-.37-2.1-.05-.56.04-1.14.11-1.7.02-.16.19-.29.38-.57.25.68.07,1.24.13,1.77.07.57.1,1.14.22,1.7.12.54.33,1.07.53,1.69-.23,0-.4,0-.58,0-.05-.04-.09-.09-.13-.14-.04-.26-.01-.56-.33-.69l.05.05Z"/>
      <path class="cls-1" d="m132.45,175.6c.36-.18.73-.36,1.14-.56-.28.74-.45.92-1.65,1.64v-.58c.17-.17.34-.33.51-.5Z"/>
      <path class="cls-1" d="m49.77,155.64c.14-.1.29-.28.43-.29,1.58-.03,3.17-.09,4.75-.04,1.22.04,2.35.47,3.31,1.25.13.11.22.28.42.56-1.62-.48-3.07-.9-4.52-1.33-1.46-.44-2.95-.27-4.44-.19,0,0,.03.04.03.04Z"/>
      <path class="cls-1" d="m58.71,164.49c-.64-.48-1.23-1.03-1.92-1.43-.68-.4-1.45-.66-2.23-1,.74-.57,1.45-.25,2.1-.03,1.04.35,1.65,1.03,2.05,2.46Z"/>
      <path class="cls-1" d="m55.13,174.27c1.39.77,2.42,1.94,3.71,2.9-.62.28-1.03-.03-1.39-.3-.95-.69-1.87-1.42-2.31-2.6Z"/>
      <path class="cls-1" d="m63.36,161.17c-1.11-.82-2.27-1.57-3.2-2.52.15-.36.34-.3.51-.21,1.16.63,2.11,1.5,2.69,2.74Z"/>
      <path class="cls-1" d="m53.46,173.46c1.04,1.21,1.99,2.3,2.95,3.43-.97-.21-1.83-.88-2.73-2.15-.23-.32-.62-.64-.23-1.28Z"/>
      <path class="cls-1" d="m49.38,171.46c-.03.09-.06.18-.08.27-.63-.42-.66-.46-1.22-1.43-.7-1.23-.84-1.63-.9-2.59.19.15.36.23.43.36.34.68.65,1.38.99,2.05.14.28.35.53.53.8l-.04-.05c.02.26,0,.55.33.64l-.05-.06Z"/>
      <path class="cls-1" d="m60.12,176.41c.18.25.37.49.59.8-.76.09-1.26-.34-1.75-.68-.57-.39-1.23-.72-1.52-1.39.24-.26.41-.13.56-.02.47.33.92.7,1.4,1.02.23.15.51.22.77.33,0,0-.05-.05-.05-.05Z"/>
      <path class="cls-1" d="m49.14,170.93c.06-.26.11-.52.18-.82.79.74,1.35,1.72,1.76,3.01-.3.13-.39-.14-.54-.27-.46-.4-.6-1.06-1.15-1.39,0,0,.05.06.05.06-.01-.27,0-.55-.33-.64l.04.05Z"/>
      <path class="cls-1" d="m61.17,174.96c.95.45,1.86.87,2.75,1.3.06.03.08.16.12.24-.02.03-.04.09-.06.09-1.16.03-2.1-.46-2.92-1.22-.04-.04.06-.23.11-.41Z"/>
      <path class="cls-1" d="m60.17,176.47c-.21-.24-.42-.48-.62-.73-.16-.2-.31-.41-.47-.62.12-.07.15-.1.2-.11.04-.01.1-.01.14,0,.09.03.18.06.26.11.9.58,1.8,1.17,2.81,1.83-.57.2-.95.03-1.33-.12-.34-.14-.69-.28-1.03-.41,0,0,.05.05.05.05Z"/>
      <path class="cls-1" d="m62.61,174.39c1.11.3,1.92.47,2.69.92-.7.25-.9.27-1.29.17-.45-.12-.8-.36-1.39-1.09Z"/>
      <path class="cls-1" d="m63.88,168c-1.12-.12-2.22-.35-3.47-.97,1.46-.11,2.47.22,3.44,1.01,0,0,.03-.03.03-.03Z"/>
      <path class="cls-1" d="m45.26,167c-.57-.62-1.03-1.27-1.11-2.1-.01-.1.11-.29.19-.31.11-.03.32.05.36.13.32.72.72,1.43.56,2.28Z"/>
      <path class="cls-1" d="m64.96,168.2c.62.38,1.4.5,1.94,1.14-1.17-.17-1.44-.33-1.93-1.13h0Z"/>
      <path class="cls-1" d="m64.97,168.21c-.18,0-.35,0-.53.01-.23.02-.45.03-.56-.23,0,0-.03.03-.03.03.37.06.74.11,1.11.17,0,0,0,.01,0,.01Z"/>
      <path class="cls-1" d="m49.74,155.6c-.07.06-.13.12-.2.17-.03.02-.09,0-.13,0,.03-.06.06-.16.1-.17.08-.01.18.03.27.04,0,0-.03-.03-.03-.03Z"/>
      <path class="cls-1" d="m132.28,187.42c.07.32.13.64.19.91-.07.09-.1.13-.13.17-.18-.21-.36-.41-.59-.67-.05.03-.14.09-.24.15-.69-.91-.87-1.66-.7-3.08.49.48.4,1.09.58,1.6.2.16.57-.15.69.25.07.23.14.45.21.67h0Z"/>
      <path class="cls-1" d="m138.55,186.7c.42-.13.68-.37,1.29-1.18.29.55.02,1.02-.11,1.49-.14.46-.28.89-.9.97-.26.03-.48.33-.86.62.02-.83.35-1.36.58-1.9Zm.49.69c0-.08,0-.15,0-.23,0,0-.07,0-.07,0,0,.08,0,.15,0,.23h.08Z"/>
      <path class="cls-1" d="m146.63,175.8c0,.9.04,1.8,0,2.7,0,.25-.2.49-.48.69v-3.42c.18.03.35.05.53.08,0,0-.05-.05-.05-.05Z"/>
      <path class="cls-1" d="m135.39,177.24c.28-.64.79-1,1.13-1.49.32-.47.67-.91,1.08-1.47.17.76-.21,1.22-.51,1.67-.49.74-.81.97-1.7,1.29Z"/>
      <path class="cls-1" d="m142.75,182.34c.36,1.38.08,2.31-.63,3.41-.17-1.14.27-1.96.32-2.82,0-.13.12-.24.3-.59Z"/>
      <path class="cls-1" d="m140.42,186.96c.23-.95.3-1.93.8-2.78.39,1.13-.03,2.01-.8,2.78Z"/>
      <path class="cls-1" d="m142.31,173.23c-.21.33-.42.67-.78,1.24-.09-1.23.09-2.06.92-2.75.31.63-.21,1.06-.19,1.56l.04-.05Z"/>
      <path class="cls-1" d="m144.11,181.06c.02,1.01.09,1.89-.47,2.77-.17-.97-.02-1.92.47-2.77Z"/>
      <path class="cls-1" d="m144.8,181.85c.07-.78.14-1.55.22-2.48.49.92.48,1.18-.22,2.48Z"/>
      <path class="cls-1" d="m137.71,187.34c-.16.81-.53,1.23-.9,1.61-.38-.07-.29-.3-.22-.43.22-.44.34-.98,1.12-1.18Z"/>
      <path class="cls-1" d="m140.52,177.26c-.55,1.23-.55,1.24-1.56,1.7,0-.08-.03-.19,0-.23.46-.45.93-.88,1.55-1.47Z"/>
      <path class="cls-1" d="m135.22,180.21c.03.14.06.27.1.45-.49.37-.99.74-1.49,1.12-.05-.04-.1-.09-.15-.13.08-.14.12-.32.23-.41.43-.35.87-.68,1.31-1.01v-.02Z"/>
      <path class="cls-1" d="m132.28,187.42c.21.01.43.02.71.04.11.45.23.93.41,1.63-.44-.25-.56-.46-.62-.7-.08-.37-.14-.75-.51-.96,0,0,0,0,0,0Z"/>
      <path class="cls-1" d="m142.27,173.28c.16-.07.33-.15.49-.22q.08.58-.37,1.3c-.03-.46-.06-.8-.08-1.13,0,0-.04.05-.04.05Z"/>
      <path class="cls-1" d="m137.98,179.69c-.44.2-.72.32-1.03.46q.18-.46,1.03-.46Z"/>
      <path class="cls-1" d="m134.77,188.26c-.08.08-.13.12-.18.16-.06-.11-.13-.22-.19-.34.04-.02.1-.07.11-.06.09.07.17.15.26.23Z"/>
      <path class="cls-1" d="m138.14,173.01c-.19-.21-.17-.37,0-.51,0,0,.1.07.09.09-.02.13-.06.26-.1.42Z"/>
      <path class="cls-1" d="m135.22,180.22c.09.02.17.03.26.05.04,0,.08.03.12.04-.06.04-.15.12-.19.1-.08-.04-.12-.13-.18-.21,0,0,0,.01,0,.01Z"/>
      <path class="cls-1" d="m102.88,18.65c-.01.38-.28.45-.47.55-.82.4-1.64.8-2.47,1.17-2.41,1.07-4.78,2.23-7.07,3.54-.12.07-.25.1-.45.18.28-.74.96-.92,1.45-1.29.54-.4,1.13-.73,1.71-1.07.58-.34,1.17-.66,1.76-.97.6-.31,1.2-.6,1.81-.87.61-.27,1.23-.53,1.86-.77.6-.22,1.16-.62,1.86-.48Z"/>
      <path class="cls-1" d="m184.83,15.74c3.44.32,6.43,1.83,9.4,3.38.49.26,1.03.51,1.24,1.1-.28.24-.48.04-.68-.06-2.18-1.01-4.35-2.05-6.54-3.03-.92-.41-1.88-.72-2.82-1.08-.21-.08-.4-.2-.61-.31Z"/>
      <path class="cls-1" d="m167.22,14.19c3.83.43,7.54,1.29,11.1,2.78-1.26-.02-2.44-.45-3.65-.72-1.26-.28-2.51-.65-3.77-.94-1.25-.29-2.51-.52-3.68-1.11Z"/>
      <path class="cls-1" d="m139.33,9.31c-.05.17-.05.25-.07.25-.8.14-1.6.31-2.41.39-2.3.23-4.6.42-6.9.64-.42.04-.83.13-1.43.22,1.66-1,8.32-1.88,10.81-1.5Z"/>
      <path class="cls-1" d="m154.01,12.65c.43-.06.7-.13.96-.12,2.59.16,5.18.33,7.77.51.12,0,.23.14.37.24-1.5.23-7.38-.16-9.1-.63Z"/>
      <path class="cls-1" d="m185.98,17.45c2.03.3,3.87,1.02,5.66,1.91.21.11.35.37.53.57-.12.08-.17.14-.2.13-1.99-.79-3.97-1.58-5.96-2.37-.02,0-.02-.08-.04-.23Z"/>
      <path class="cls-1" d="m99.24,18.84c-.1.11-.17.25-.29.31-1.45.71-2.91,1.41-4.58,2.21.75-.9,1.92-1.62,3.8-2.4.33-.14.65-.45,1.07-.12Z"/>
      <path class="cls-1" d="m136.63,10.67c-.32.29-.38.39-.46.4-1.42.21-2.84.42-4.56.67.34-.3.43-.46.56-.48,1.4-.25,2.77-.66,4.46-.59Z"/>
      <path class="cls-1" d="m150.55,12.28c-1.57.39-3.13.43-4.83.2.2-.18.29-.34.38-.34,1.48.03,2.96.09,4.45.14Z"/>
      <path class="cls-1" d="m205.13,29.08c-.23-.09-.45-.19-.71-.29.26-.29.38-.04.51.03.08.04.11.19.16.29,0,0,.03-.03.03-.03Z"/>
    </g>
  </g>
</svg>